<!-- Generated by IcoMoon.io -->
<svg version="1.1" xmlns="http://www.w3.org/2000/svg" width="32" height="32" viewBox="0 0 32 32">
<title>bell</title>
<path fill="#bbb" d="M16 0c0.96 0 1.752 0.824 1.846 1.878l0.010 0.214v1.362c4.264 0.998 7.426 5.066 7.426 10.146 0 6.688 2.096 8.731 3.218 10.088 0.349 0.421 0.504 0.926 0.501 1.419-0.005 1.006-0.663 1.965-1.659 2.080l-0.203 0.013h-22.275c-1.108 0-1.856-1.019-1.862-2.093-0.006-0.516 0.171-1.018 0.501-1.419l0.515-0.616c1.147-1.398 2.704-3.712 2.704-9.472 0-4.936 2.983-8.914 7.062-10.053l0.362-0.093v-1.362c0-1.155 0.83-2.093 1.856-2.093zM16 32c1.795 0 3.25-1.433 3.25-3.2h-6.5c0 1.767 1.455 3.2 3.25 3.2z"></path>
</svg>
