<?xml version="1.0" encoding="UTF-8"?>
<svg width="14px" height="16px" viewBox="0 0 14 16" version="1.1" xmlns="http://www.w3.org/2000/svg" xmlns:xlink="http://www.w3.org/1999/xlink">
    <title>客户经理</title>
    <path d="M7,7.63671655 C4.80573515,7.63671655 3.02684155,5.92719278 3.02684155,3.81831866 C3.02684155,1.70950396 4.80573515,0 7,0 C9.17841665,0.0212717496 10.9326621,1.72451698 10.9326621,3.81816021 C10.9326621,5.91180344 9.17841665,7.61496945 7,7.63632042 L7,7.63671655 Z M5.45835541,7.79106547 L6.81097568,9.09099912 L5.67579933,13.0909793 L7,14.5457174 L8.32420067,13.0909793 L7.18902432,9.09099912 L8.54164459,7.79106547 C11.7880115,8.45031145 14,11.0779469 14,12.909397 C14,15.0178156 9.19428546,16 7,16 C4.80573515,16 0,15.0178156 0,12.909397 C0,11.0779469 2.21198846,8.45031145 5.45835541,7.79106547 L5.45835541,7.79106547 Z" id="Fill-1" fill="#2595FF" mask="url(#mask-2)"></path>
</svg>