<?xml version="1.0" encoding="UTF-8"?>
<svg width="22px" height="22px" viewBox="0 0 22 22" version="1.1" xmlns="http://www.w3.org/2000/svg" xmlns:xlink="http://www.w3.org/1999/xlink">
    <title>关闭</title>
    <path d="M13.1504256,10.9941412 L21.5628419,2.5771135 C22.1417483,1.99786689 22.1417483,1.05211042 21.5628419,0.484668082 L21.5155925,0.437450969 C21.2319806,0.153686508 20.8657831,0 20.4639611,0 C20.0622545,0 19.696057,0.153686508 19.412474,0.437450969 L11.0117691,8.86619631 L2.5994105,0.437450969 C2.31579858,0.153686508 1.9495723,0 1.54777914,0 C1.14604367,0 0.779846226,0.153686508 0.496234312,0.437450969 L0.449013736,0.484668082 C0.165430668,0.768432542 0,1.13485581 0,1.53674964 C0,1.93878777 0.153603889,2.30518218 0.437215803,2.5889755 L8.84957439,11.0058588 L0.437215803,19.4228865 C-0.141748265,20.0021331 -0.141748265,20.9479184 0.437215803,21.5153319 L0.484407533,21.5625779 C0.768019447,21.8463424 1.13424573,22 1.53592351,22 C1.93777436,22 2.30394296,21.8463424 2.58755487,21.5625779 L10.9999423,13.1456657 L19.412474,21.5625779 C19.696057,21.8463424 20.0622545,22 20.4639611,22 C20.8657831,22 21.2319806,21.8463424 21.5155925,21.5625779 L21.5628419,21.5153319 C21.8464538,21.2315675 22,20.865173 22,20.4632504 C22,20.0612122 21.8464538,19.6948178 21.5628419,19.4110534 L13.1504256,10.9941412 Z" id="Fill-1" fill="#FFFFFF" mask="url(#mask-2)"></path>
</svg>