<!-- Generated by IcoMoon.io -->
<svg version="1.1" xmlns="http://www.w3.org/2000/svg" width="32" height="32" viewBox="0 0 32 32">
<title>cpzx</title>
<path fill="#ccc" d="M17.341 30.221c-0.778 0.028-1.421-0.555-1.451-1.294v-11.32c0-0.924 0.718-1.835 1.811-2.29l8.455-4.238c0.269-0.128 0.554-0.199 0.838-0.228 0.778-0.028 1.422 0.555 1.451 1.294v11.32c0 0.924-0.718 1.835-1.811 2.29l-8.454 4.252c-0.254 0.128-0.539 0.213-0.838 0.213zM12.882 30.221c-0.329-0.014-0.658-0.099-0.973-0.227l-8.32-4.124c-0.973-0.455-1.811-1.493-1.811-2.29v-11.363c-0.030-0.74 0.584-1.351 1.362-1.38h0.090c0.299 0.014 0.583 0.1 0.838 0.228l8.455 4.124c0.973 0.455 1.81 1.493 1.81 2.29v11.235c0.045 0.782-0.599 1.45-1.422 1.493-0.015 0.014-0.030 0.014-0.030 0.014zM14.812 14.166c-0.584 0.014-1.167-0.114-1.691-0.341l-9.412-4.48c-0.718-0.228-1.092-0.683-1.092-1.266s0.359-1.038 0.973-1.379l9.532-4.579c0.569-0.242 1.182-0.356 1.81-0.341 0.584-0.014 1.167 0.114 1.691 0.341l9.412 4.366c0.599 0.341 0.973 0.796 0.973 1.38s-0.374 1.024-0.973 1.365l-9.532 4.594c-0.359 0.227-1.092 0.341-1.691 0.341z"></path>
</svg>
