<!-- Generated by IcoMoon.io -->
<svg version="1.1" xmlns="http://www.w3.org/2000/svg" width="32" height="32" viewBox="0 0 32 32">
<title>del</title>
<path fill="#2595ff" d="M5.472 26.42v-17.057h19.152v17.059c0 1.663-0.835 1.86-1.754 1.86h-15.327c-1.224 0-2.071-0.193-2.071-1.858v-0.004zM11.258 7.451c0.134-2.128 1.861-3.821 3.838-3.821 1.973 0 3.721 1.697 3.834 3.821l-7.672-0zM15.019 1.778c-3.119-0.004-5.679 2.438-5.786 5.518h-6.047c-0.812 0-1.409 0.193-1.409 0.998 0 0.798 0.591 1.090 1.409 1.090h0.526v16.892c0 2.626 1.228 3.946 3.826 3.946h15.122c3.084 0 3.873-1.544 3.873-3.946l-0.038-16.894h0.731c0.812 0 1.416-0.286 1.416-1.090 0-0.8-1.167-0.99-1.982-0.99h-5.864c-0.095-3.083-2.655-5.531-5.776-5.524v0z"></path>
<path fill="#2595ff" d="M19.775 23.775c0.529 0 0.966-0.283 0.966-1.123v-8.602c0-0.839-0.433-1.205-0.966-1.205-0.529 0-0.966 0.366-0.966 1.205v8.606c0 0.833 0.421 1.121 0.966 1.121v-0.002zM15.095 23.795c0.529 0 0.966-0.302 0.966-1.143v-8.602c0-0.839-0.433-1.211-0.966-1.211-0.529 0-0.966 0.372-0.966 1.211v8.606c0 0.833 0.436 1.141 0.966 1.141v-0.002zM10.645 23.901c0.529 0 0.966-0.407 0.966-1.247v-8.606c0-0.839-0.433-1.203-0.966-1.203-0.529 0-0.966 0.364-0.966 1.203v8.606c0 0.833 0.425 1.247 0.966 1.247h0z"></path>
</svg>
