<!-- Generated by IcoMoon.io -->
<svg version="1.1" xmlns="http://www.w3.org/2000/svg" width="32" height="32" viewBox="0 0 32 32">
<title>download</title>
<path fill="#2595ff" d="M30.202 28.129c0 0.672-0.556 1.218-1.242 1.218h-25.94c-0.686 0-1.242-0.545-1.242-1.218s0.556-1.218 1.242-1.218h25.94c0.686 0 1.242 0.545 1.242 1.218z"></path>
<path fill="#2595ff" d="M15.987 23.496c-0.691 0-1.251-0.511-1.251-1.14v-19.438c0-0.63 0.56-1.14 1.251-1.14s1.251 0.51 1.251 1.14v19.438c0 0.63-0.56 1.14-1.251 1.14z"></path>
<path fill="#2595ff" d="M16.872 23.155c-0.489 0.445-1.281 0.445-1.769 0l-9.389-8.555c-0.489-0.445-0.489-1.167 0-1.612s1.281-0.445 1.769 0l9.389 8.556c0.488 0.445 0.488 1.167 0 1.612z"></path>
<path fill="#2595ff" d="M15.102 23.155c-0.489-0.445-0.489-1.167 0-1.612l9.389-8.556c0.488-0.445 1.28-0.445 1.769 0s0.489 1.167 0 1.612l-9.389 8.556c-0.489 0.445-1.281 0.445-1.769 0z"></path>
</svg>
