<!-- Generated by IcoMoon.io -->
<svg version="1.1" xmlns="http://www.w3.org/2000/svg" width="37" height="32" viewBox="0 0 37 32">
<title>folder</title>
<path fill="#dfb632" d="M3.655 0.042h17.666c0.916 0 1.799 0.368 2.473 1.031l4.57 4.493h4.531c2.019 0 3.655 1.751 3.655 3.91v12.775c0 2.85-2.16 5.161-4.825 5.161h-26.901c-1.28 0-2.507-0.544-3.412-1.512s-1.413-2.281-1.413-3.65v-18.299c0-1.037 0.385-2.032 1.071-2.765s1.615-1.145 2.584-1.145z"></path>
<path fill="#fff" d="M4.571 25.143h25.143v-18.286h-25.143z"></path>
<path fill="#ffd54e" d="M3.657 11.429h29.257c2.438 0 3.657 1.247 3.657 3.74v13.091c0 2.494-1.219 3.74-3.657 3.74h-29.257c-2.438 0-3.657-1.247-3.657-3.74v-13.091c0-2.494 1.219-3.74 3.657-3.74z"></path>
</svg>
