<?xml version="1.0" encoding="UTF-8"?>
<svg width="15px" height="19px" viewBox="0 0 15 19" version="1.1" xmlns="http://www.w3.org/2000/svg" xmlns:xlink="http://www.w3.org/1999/xlink">
    <title>gps</title>
    <path d="M7.49993249,11.0443494 C6.61301249,11.0420733 5.76333468,10.6825551 5.13799938,10.0450093 C4.51257515,9.40757609 4.16283206,8.54426374 4.1656608,7.64527676 C4.16307664,6.74656022 4.51301983,5.88367605 5.13842183,5.24651332 C5.76375713,4.60941819 6.6132793,4.25035074 7.49993249,4.24832249 C8.38696366,4.25059864 9.23664147,4.61011681 9.86197677,5.24764012 C10.4873121,5.88518597 10.8370552,6.74840818 10.8342045,7.64739515 C10.8370552,8.54629198 10.4873121,9.40951419 9.86188784,10.0468572 C9.23655254,10.6842453 8.38678579,11.0433804 7.49993249,11.0454086 L7.49993249,11.0443494 Z M7.49993249,0 C3.35786712,0 0,3.42302852 0,7.64739515 C0,9.75857561 0.839939255,11.6699061 2.19639991,13.0544781 L7.49993249,18.4615385 L12.8034873,13.0544781 C14.2135322,11.618321 15.0035336,9.67352443 14.9999881,7.64739515 C14.9999881,3.42302852 11.6420868,0 7.49993249,0 L7.49993249,0 Z" id="Fill-1" fill="#CCCCCC" mask="url(#mask-2)"></path>
</svg>