<!-- Generated by IcoMoon.io -->
<svg version="1.1" xmlns="http://www.w3.org/2000/svg" width="32" height="32" viewBox="0 0 32 32">
<title>grzy</title>
<path fill="#ccc" d="M21.27 25.884c0 0.111-0.113 0.222-0.113 0.222h-10.766c0 0 0-0.222-0.113-0.333-0.113-0.555-0.227-1.111-0.227-1.666 0-2.888 2.153-5.221 4.986-5.554-1.7-0.333-2.946-1.777-2.946-3.555 0-2 1.7-3.666 3.74-3.666s3.74 1.666 3.74 3.666c0 1.777-1.247 3.221-2.946 3.555 2.833 0.333 4.986 2.666 4.986 5.554 0.113 0.666 0 1.222-0.34 1.777zM29.655 14.775c-0.793-0.778-11.786-11.886-12.126-12.331s-0.907-0.667-1.587-0.667c-0.68 0-1.246 0.333-1.586 0.778-2.493 2.444-12.012 11.998-12.012 12.22-0.34 0.222-0.567 0.666-0.567 1.111 0 0.778 0.68 1.444 1.473 1.444h1.473v7.776c0 1.666 1.36 3.444 3.513 3.333h15.639c1.927 0.111 3.513-1.444 3.513-3.333v-7.776h1.473c0.793 0 1.36-0.666 1.36-1.444-0.113-0.555-0.453-0.889-0.567-1.111z"></path>
</svg>
