<!-- Generated by IcoMoon.io -->
<svg version="1.1" xmlns="http://www.w3.org/2000/svg" width="32" height="32" viewBox="0 0 32 32">
<title>gywm</title>
<path fill="#ccc" d="M13.679 24.889c-0.988 0-1.711-0.6-1.021-3.237l1.133-4.675c0.196-0.75 0.229-1.050 0-1.050-0.295 0-1.579 0.518-2.337 1.028l-0.493-0.809c2.404-2.007 5.168-3.184 6.352-3.184 0.987 0 1.151 1.169 0.658 2.966l-1.298 4.916c-0.229 0.869-0.13 1.169 0.099 1.169 0.295 0 1.268-0.359 2.223-1.11l0.558 0.75c-2.336 2.336-4.885 3.236-5.874 3.236zM17.387 6.519c1.445 0 1.872 0.838 1.872 1.797 0 1.199-0.96 2.307-2.597 2.307-1.37 0-2.021-0.689-1.982-1.827 0.001-0.96 0.805-2.277 2.708-2.277zM15.81 1.779c-7.853 0.105-14.136 6.558-14.031 14.413 0.105 7.85 6.558 14.134 14.411 14.029s14.136-6.558 14.031-14.413c-0.104-7.851-6.558-14.134-14.411-14.029z"></path>
</svg>
