<?xml version="1.0" encoding="UTF-8"?>
<svg width="18px" height="18px" viewBox="0 0 18 18" version="1.1" xmlns="http://www.w3.org/2000/svg" xmlns:xlink="http://www.w3.org/1999/xlink">
    <title>membercenter</title>
      <g id="页面-1" stroke="none" stroke-width="1" fill="none" fill-rule="evenodd">
        <g id="机时中心-无" transform="translate(-278.000000, -505.000000)">
            <g id="会员中心-默认-2" transform="translate(278.000000, 505.000000)">
                <g id="会员中心-默认" transform="translate(1.000000, 2.000000)">
                    <g id="编组">
                        <mask id="mask-2" fill="white">
                            <use xlink:href="#path-1"></use>
                        </mask>
                        <g id="Clip-2"></g>
                        <path d="M7.4803961,13.7334463 L0.249371707,6.17786737 C-0.0170087805,5.89045684 -0.0931453659,5.39767789 0.135205854,5.06923579 L3.0656839,0.388056842 C3.21789854,0.141698947 3.48427902,0.0184989474 3.71263024,0.0184989474 L12.2757522,0.0184989474 C12.5421327,0.0184989474 12.7704839,0.141698947 12.9226985,0.388056842 L15.8531961,5.02809895 C16.0815473,5.39767789 16.04344,5.84940421 15.7390107,6.13681474 L8.54601561,13.7334463 C8.2415278,14.0619305 7.78490341,14.0619305 7.4803961,13.7334463" id="Fill-1" fill="#CCCCCC" mask="url(#mask-2)"></path>
                    </g>
                    <g id="编组" transform="translate(5.000000, 7.000000)">
                        <path d="M2.49631643,3.75111224 C2.53001671,3.79086735 2.59750375,3.87054082 2.66497349,3.91031633 C2.59750375,3.87054082 2.53001671,3.8307449 2.49631643,3.75111224" id="Fill-3" fill="#FFE27F"></path>
                        <path d="M2.96851124,2.6365551 L0.843733141,0.16857551 C0.742563112,0.0491877551 0.607675504,0.00939183673 0.506488184,0.00939183673 C0.0680731988,0.00939183673 -0.168001729,0.646269388 0.169243228,1.0442898 L2.53002709,3.75110612 C2.56377925,3.79088163 2.63119712,3.87053469 2.69868415,3.9103102 C2.76608473,3.95008571 2.83355447,3.98992245 2.86732392,3.98992245 L3.00221153,3.98992245 C3.17079942,3.98992245 3.33945648,3.9103102 3.47436138,3.75110612 L5.83517983,1.0442898 C6.17244207,0.686065306 5.93636715,0.00939183673 5.49793487,0.00939183673 C5.3629781,0.00939183673 5.22810778,0.0889632653 5.16068991,0.16857551 L2.96851124,2.6365551 Z" id="Fill-5" fill="#FFFFFF"></path>
                    </g>
                </g>
            </g>
        </g>
    </g>
 
</svg>