<!-- Generated by IcoMoon.io -->
<svg version="1.1" xmlns="http://www.w3.org/2000/svg" width="32" height="32" viewBox="0 0 32 32">
<title>jszx</title>
<path fill="#ccc" d="M23.682 30.222c-0.314 0-0.609-0.117-0.844-0.35l-4.122-4.085c-0.451-0.467-0.451-1.206 0.020-1.653 0.451-0.447 1.197-0.447 1.649 0l4.122 4.085c0.451 0.447 0.451 1.186 0 1.653-0.216 0.233-0.53 0.35-0.824 0.35zM8.294 30.222c-0.648 0-1.178-0.525-1.178-1.167 0-0.311 0.118-0.603 0.333-0.817l4.122-4.085c0.471-0.447 1.217-0.447 1.668 0.019 0.451 0.447 0.451 1.187 0 1.634l-4.122 4.085c-0.196 0.214-0.51 0.331-0.824 0.331zM14.81 4.975v-1.984c0-0.642 0.53-1.167 1.178-1.167s1.178 0.525 1.178 1.167v1.965z"></path>
<path fill="#ccc" d="M25.016 12.567l-0.019 0.020-6.178 5.557c-0.937 0.846-2.831 1.047-3.71-0.040-0.038-0.040-0.057-0.080-0.249-0.342-0.019-0.020-0.038-0.040-0.038-0.060-0.096-0.141-0.229-0.322-0.402-0.584-0.44-0.644-1.205-1.792-1.454-2.114-0.325-0.201-0.708-0.161-0.995 0.101l-4.533 4.188c-0.402 0.362-0.995 0.322-1.339-0.101s-0.306-1.047 0.096-1.409l4.552-4.188c0.995-0.886 2.41-0.946 3.462-0.141 0.172 0.121 0.191 0.141 1.798 2.517 0.134 0.201 0.287 0.423 0.383 0.584 0.153 0.181 0.344 0.282 0.574 0.302s0.459-0.060 0.631-0.222l6.178-5.537c0.402-0.363 0.995-0.302 1.339 0.121 0.325 0.362 0.287 0.987-0.096 1.349zM26.546 5.379h-21.116c-1.033 0-1.874 1.087-1.874 2.416v16.449c0 1.329 0.842 2.416 1.874 2.416h21.097c1.033 0 1.874-1.087 1.874-2.416v-16.449c0.019-1.329-0.822-2.416-1.855-2.416z"></path>
</svg>
