<?xml version="1.0" encoding="UTF-8"?>
<svg width="20px" height="14px" viewBox="0 0 20 14" version="1.1" xmlns="http://www.w3.org/2000/svg" xmlns:xlink="http://www.w3.org/1999/xlink">
    <title>机时会员</title>
    <path d="M7.42260482,11.6596394 C8.37999503,11.6596394 9.07488039,11.3499295 9.76477815,10.6686072 C9.48251543,10.3107231 9.16981964,9.95748069 8.87506169,9.59868251 C8.47493429,9.99785893 8.03504615,10.2492686 7.46737065,10.2492686 C6.77255529,10.2492686 6.17714178,9.7804473 6.17714178,9.04078896 C6.17714178,8.31131031 6.77255529,7.83230936 7.44721027,7.83230936 C9.59495501,7.83230936 10.0546185,11.6725253 13.1799313,11.6725253 C14.704997,11.6725253 15.9925659,10.6920671 15.9925659,9.05087904 C15.9925659,7.39182275 14.6951444,6.42152636 13.1499183,6.42152636 C12.1925281,6.42152636 11.4802124,6.70042832 10.7979098,7.39182275 C11.110168,7.74011865 11.4026859,8.11130093 11.7051265,8.47000951 C12.0949113,8.08049304 12.5348169,7.82958521 13.0925697,7.82958521 C13.7377541,7.82958521 14.3828686,8.2980122 14.3828686,8.99947878 C14.3828686,9.77026761 13.8349684,10.2593407 13.1024749,10.2593407 C11.0223339,10.2593407 10.4650536,6.41921442 7.41992727,6.41921442 C5.90744429,6.41921442 4.56970204,7.36893637 4.56970204,9.01740077 C4.56970204,10.7071933 5.86978359,11.6601233 7.42260482,11.6601233 L7.42260482,11.6596394 Z M20,10.0291149 C20,12.2175329 18.2326073,14 16.0651572,14 C15.9876308,14 15.919957,13.9899278 15.8500957,13.9899278 L3.96485585,13.9899278 C1.77724538,13.8591511 0,12.1487125 0,9.92946863 C0,8.4388611 0.789842112,7.1381191 1.97212898,6.42880268 C1.89332503,6.16339597 1.8538093,5.88736152 1.85475431,5.60985747 C1.85475431,4.08157792 3.07464938,2.83963797 4.59971509,2.83963797 C5.22514167,2.83963797 5.81243503,3.05980958 6.27974618,3.42091971 C7.27766714,1.32187863 9.36048567,-0.00728764224 11.6401828,3.0061824e-05 C14.9298937,3.0061824e-05 17.5874754,2.69093924 17.5874754,6.00125575 C17.5874754,6.12188865 17.5775702,6.24209142 17.5775702,6.35998225 C18.9928389,6.95918598 20,8.37738868 20,10.0291149 L20,10.0291149 Z" id="Fill-1" fill="#2595FF" mask="url(#mask-2)"></path>
</svg>