<?xml version="1.0" encoding="UTF-8"?>
<svg width="14px" height="14px" viewBox="0 0 14 14" version="1.1" xmlns="http://www.w3.org/2000/svg" xmlns:xlink="http://www.w3.org/1999/xlink">
    <title>更多</title>
    <g id="页面-1" stroke="none" stroke-width="1" fill="none" fill-rule="evenodd">
        <g id="产品详情" transform="translate(-1610.000000, -803.000000)" fill="#C9C9C9">
            <g id="更多" transform="translate(1610.000000, 803.000000)">
                <path d="M0.800075087,14 C0.594874277,14 0.389769546,13.9237308 0.233545027,13.7713092 C-0.0785437147,13.4671664 -0.0776790033,12.974756 0.235130331,12.6713606 L6.06864131,7.01513285 L0.233545027,1.32707566 C-0.0785437147,1.0229563 -0.0776790033,0.530452479 0.235130331,0.227057047 C0.547939666,-0.0763617371 1.05442033,-0.0755210477 1.36650907,0.228598311 L7.7665501,6.46763393 C7.91648144,6.61368035 8.00045452,6.81161597 8,7.0179585 C7.99980599,7.22420761 7.91525644,7.42197977 7.76503686,7.56758249 L1.36499582,13.7728504 C1.20896346,13.9243613 1.00431511,14 0.800075087,14" id="Fill-1"></path>
                <path d="M6.80011138,14 C6.59500731,14 6.38980717,13.9237308 6.23358315,13.7713092 C5.92151944,13.4671664 5.92226405,12.974756 6.23507237,12.6713606 L12.0686846,7.01531967 L6.23358315,1.32707566 C5.92151944,1.0229563 5.92226405,0.530452479 6.23507237,0.227057047 C6.5480008,-0.0763617371 7.05467198,-0.0755210477 7.36654353,0.228598311 L13.7665639,6.46763393 C14.0784595,6.7718467 14.0776908,7.2641637 13.7649786,7.56758249 L7.36505431,13.7728504 C7.2088303,13.9243613 7.00437476,14 6.80011138,14" id="Fill-3"></path>
            </g>
        </g>
    </g>
</svg>