<!-- Generated by IcoMoon.io -->
<svg version="1.1" xmlns="http://www.w3.org/2000/svg" width="32" height="32" viewBox="0 0 32 32">
<title>qz</title>
<path fill="#ccc" d="M22.22 11.778c2.455 0 4.447-1.867 4.447-4.167 0-2.298-1.991-4.167-4.447-4.167-2.453 0-4.442 1.869-4.442 4.167 0 2.3 1.989 4.167 4.442 4.167zM10.664 11.778c2.946 0 5.336-2.238 5.336-5 0-2.76-2.389-5-5.336-5s-5.331 2.24-5.331 5c0 2.762 2.385 5 5.331 5zM29.888 20.111c-0.483-3.646-3.129-6.667-8.254-6.667-1.506 0-2.773 0.286-3.857 0.747 1.88 1.602 3.112 3.867 3.47 6.657l0.133 0.929c0.242 1.619 0.498 3.402-0.26 4.989 0.178 0.004 0.331 0.012 0.513 0.012 10.054 0 8.737-3.023 8.254-6.667zM10.666 13.444c-5.306 0-8.046 3.399-8.542 7.502-0.502 4.099-1.865 7.498 8.542 7.498 10.41 0 9.043-3.399 8.542-7.498-0.494-4.102-3.236-7.502-8.542-7.502z"></path>
</svg>
