<?xml version="1.0" encoding="UTF-8"?>
<svg width="22px" height="22px" viewBox="0 0 22 22" version="1.1" xmlns="http://www.w3.org/2000/svg" xmlns:xlink="http://www.w3.org/1999/xlink">
    <title>刷新</title>
   <path d="M20.968659,7.90630396 L16.4999753,7.90630396 C15.9299571,7.90630396 15.4687659,7.4443207 15.4687659,6.87495683 C15.4687659,6.30569164 15.9299571,5.84370838 16.4999753,5.84370838 L18.2939278,5.84370838 C16.6757299,3.55720861 14.0147459,2.06246403 11.0000822,2.06246403 C6.06402435,2.06246403 2.06258325,6.06402772 2.06258325,10.9999836 C2.06258325,15.9360709 6.06402435,19.937536 11.0000822,19.937536 C15.9360085,19.937536 19.9374496,15.9359394 19.9374496,10.9999836 C19.9374496,10.4306197 20.3986408,9.96876799 20.968659,9.96876799 C21.5380195,9.96876799 22,10.4307512 22,10.9999836 C22,17.0750947 17.0746308,22 10.9999507,22 C4.92527054,22 0,17.0750947 0,10.9999836 C0,4.92490533 4.92527054,0 10.9999507,0 C14.6867504,0 17.9432081,1.81770861 19.9374496,4.60269775 L19.9374496,2.75002878 C19.9374496,2.18063203 20.3986408,1.71878032 20.968659,1.71878032 C21.5380195,1.71878032 22,2.18063203 22,2.75002878 L22,6.87495683 C22,7.4443207 21.5380195,7.90630396 20.968659,7.90630396" id="Fill-1" fill="#333333" mask="url(#mask-2)"></path>
</svg>