<!-- Generated by IcoMoon.io -->
<svg version="1.1" xmlns="http://www.w3.org/2000/svg" width="32" height="32" viewBox="0 0 32 32">
<title>setting</title>
<path fill="#bbb" d="M16 20.393c-2.425 0-4.393-1.968-4.393-4.393s1.968-4.393 4.393-4.393c2.425 0 4.393 1.968 4.393 4.393s-1.968 4.393-4.393 4.393zM29.179 16c0-1.871 1.175-3.457 2.821-4.089-0.393-1.543-1-2.996-1.793-4.332-1.614 0.718-3.564 0.425-4.886-0.9-1.321-1.322-1.614-3.275-0.896-4.886-1.339-0.793-2.793-1.4-4.336-1.793-0.636 1.646-2.221 2.821-4.089 2.821-1.871 0-3.457-1.175-4.089-2.821-1.543 0.393-2.996 1-4.332 1.793 0.718 1.614 0.425 3.564-0.897 4.886s-3.275 1.614-4.886 0.9c-0.796 1.336-1.403 2.789-1.796 4.332 1.646 0.636 2.821 2.221 2.821 4.089 0 1.872-1.175 3.457-2.821 4.089 0.393 1.543 1 2.996 1.793 4.332 1.614-0.718 3.564-0.425 4.886 0.9 1.321 1.322 1.614 3.275 0.896 4.886 1.339 0.793 2.793 1.4 4.336 1.793 0.636-1.646 2.221-2.821 4.089-2.821 1.871 0 3.457 1.175 4.089 2.821 1.543-0.393 2.996-1 4.332-1.793-0.718-1.614-0.425-3.564 0.897-4.886s3.275-1.614 4.886-0.9c0.796-1.336 1.404-2.789 1.797-4.332-1.646-0.632-2.821-2.218-2.821-4.089z"></path>
</svg>
