<?xml version="1.0" encoding="UTF-8" standalone="no"?>
<svg
   width="18px"
   height="18px"
   viewBox="0 0 18 18"
   version="1.1"
   id="svg15"
   sodipodi:docname="share.svg"
   inkscape:version="1.0.1 (3bc2e813f5, 2020-09-07)">
   <g fill="#000">
      <path
         style="color:#000000;font-style:normal;font-variant:normal;font-weight:normal;font-stretch:normal;font-size:medium;line-height:normal;font-family:sans-serif;font-variant-ligatures:normal;font-variant-position:normal;font-variant-caps:normal;font-variant-numeric:normal;font-variant-alternates:normal;font-variant-east-asian:normal;font-feature-settings:normal;font-variation-settings:normal;text-indent:0;text-align:start;text-decoration:none;text-decoration-line:none;text-decoration-style:solid;text-decoration-color:#000000;letter-spacing:normal;word-spacing:normal;text-transform:none;writing-mode:lr-tb;direction:ltr;text-orientation:mixed;dominant-baseline:auto;baseline-shift:baseline;text-anchor:start;white-space:normal;shape-padding:0;shape-margin:0;inline-size:0;clip-rule:nonzero;display:inline;overflow:visible;visibility:visible;isolation:auto;mix-blend-mode:normal;color-interpolation:sRGB;color-interpolation-filters:linearRGB;solid-color:#000000;solid-opacity:1;vector-effect:none;fill:#2595ff;fill-opacity:1;fill-rule:nonzero;stroke:none;stroke-width:0.2;stroke-linecap:butt;stroke-linejoin:miter;stroke-miterlimit:4;stroke-dasharray:none;stroke-dashoffset:0;stroke-opacity:1;color-rendering:auto;image-rendering:auto;shape-rendering:auto;text-rendering:auto;enable-background:accumulate;stop-color:#000000"
         d="m 12.895299,16.000034 c -1.093102,0 -1.980963,-0.896476 -1.980963,-2 0,-1.103602 0.887861,-2 1.980963,-2 1.092986,0 1.980925,0.896398 1.980925,2 0,1.103524 -0.887939,2 -1.980925,2 M 4.9714647,10.99999 c -1.0930636,0 -1.980944,-0.896417 -1.980944,-1.9999802 0,-1.1035239 0.8878804,-2 1.980944,-2 1.0930052,0 1.9809441,0.8964761 1.9809441,2 0,1.1035632 -0.8879389,1.9999802 -1.9809441,1.9999802 M 12.895299,6.0000442 c -1.093102,0 -1.980963,-0.8964761 -1.980963,-2 0,-1.1036025 0.887861,-1.9999999 1.980963,-1.9999999 1.092986,0 1.980925,0.8963974 1.980925,1.9999999 0,1.1035239 -0.887939,2 -1.980925,2 M 12.895299,1 c -1.641446,0 -2.9714644,1.3428458 -2.9714644,3.0000541 0,0.4053239 0.081329,0.7910592 0.2263584,1.1428487 L 7.1841238,7.0142883 C 6.6393062,6.3964589 5.8540271,6.0000442 4.9714647,6.0000442 3.3300577,6.0000442 2,7.3428703 2,9 c 0,1.65713 1.3300577,3.000034 2.9714647,3.000034 0.8825624,0 1.6678415,-0.396414 2.2126591,-1.014322 l 2.9660692,1.871464 c -0.145029,0.351789 -0.2263584,0.737446 -0.2263584,1.142868 0,1.657091 1.3300184,2.999956 2.9714644,2.999956 1.64133,0 2.971368,-1.342865 2.971368,-2.999956 C 15.866667,12.342915 14.536629,11 12.895299,11 c -0.88264,0 -1.6679,0.396425 -2.212678,1.014333 L 7.7164741,10.142849 C 7.861503,9.7910789 7.9428711,9.405383 7.9428711,9 c 0,-0.4053239 -0.081368,-0.7910789 -0.226397,-1.1428487 L 10.682621,5.9857461 C 11.227399,6.6035755 12.012659,7 12.895299,7 14.536629,7 15.866667,5.6571641 15.866667,4.0000541 15.866667,2.3428458 14.536629,1 12.895299,1"
         id="path28" />
      <path
         style="color:#000000;font-style:normal;font-variant:normal;font-weight:normal;font-stretch:normal;font-size:medium;line-height:normal;font-family:sans-serif;font-variant-ligatures:normal;font-variant-position:normal;font-variant-caps:normal;font-variant-numeric:normal;font-variant-alternates:normal;font-variant-east-asian:normal;font-feature-settings:normal;font-variation-settings:normal;text-indent:0;text-align:start;text-decoration:none;text-decoration-line:none;text-decoration-style:solid;text-decoration-color:#000000;letter-spacing:normal;word-spacing:normal;text-transform:none;writing-mode:lr-tb;direction:ltr;text-orientation:mixed;dominant-baseline:auto;baseline-shift:baseline;text-anchor:start;white-space:normal;shape-padding:0;shape-margin:0;inline-size:0;clip-rule:nonzero;display:inline;overflow:visible;visibility:visible;isolation:auto;mix-blend-mode:normal;color-interpolation:sRGB;color-interpolation-filters:linearRGB;solid-color:#000000;solid-opacity:1;vector-effect:none;fill:#2595ff;fill-opacity:1;fill-rule:nonzero;stroke:none;stroke-width:0.2;stroke-linecap:butt;stroke-linejoin:miter;stroke-miterlimit:4;stroke-dasharray:none;stroke-dashoffset:0;stroke-opacity:1;color-rendering:auto;image-rendering:auto;shape-rendering:auto;text-rendering:auto;enable-background:accumulate;stop-color:#000000"
         d="M 12.894531,0.90039062 C 11.198546,0.90039062 9.8242188,2.2892873 9.8242188,4 c 0,0.3875478 0.087268,0.7525677 0.2167972,1.09375 L 7.1875,6.8925781 C 6.6282037,6.2935853 5.8506,5.9003906 4.9707031,5.9003906 3.2747565,5.9003906 1.9003906,7.2893618 1.9003906,9 c 0,1.710638 1.3743627,3.099609 3.0703125,3.099609 0.8798969,0 1.6575,-0.393121 2.2167969,-0.992187 l 2.853516,1.798828 C 9.9114882,13.24742 9.8242187,13.612364 9.8242188,14 c 0,1.710599 1.3743262,3.099609 3.0703122,3.099609 1.695874,0 3.072266,-1.389009 3.072266,-3.099609 0,-1.710637 -1.37639,-3.099609 -3.072266,-3.099609 -0.879929,0 -1.655588,0.393166 -2.214843,0.992187 L 7.8261719,10.09375 C 7.9557039,9.7525926 8.0429687,9.3876067 8.0429688,9 c 0,-0.3875538 -0.087264,-0.7525833 -0.2167969,-1.09375 L 10.679688,6.1074219 c 0.559255,0.5989478 1.334914,0.9921875 2.214843,0.9921875 1.695873,0 3.072266,-1.3889911 3.072266,-3.0996094 0,-1.7107135 -1.376393,-3.09960938 -3.072266,-3.09960938 z m 0,0.19921878 c 1.586787,0 2.873047,1.2966875 2.873047,2.9003906 0,1.6036017 -1.286259,2.9003906 -2.873047,2.9003906 -0.852697,0 -1.609434,-0.3824784 -2.136719,-0.9804687 l -0.05664,-0.064453 -3.1093751,1.9628906 0.03125,0.076172 C 7.7632802,8.2346691 7.84375,8.6080593 7.84375,9 c 0,0.3920017 -0.080468,0.7653269 -0.2207031,1.105469 l -0.03125,0.07617 3.1093751,1.96289 0.05664,-0.06445 c 0.527285,-0.598066 1.284022,-0.980469 2.136719,-0.980469 1.586784,0 2.873047,1.29677 2.873047,2.900391 0,1.603582 -1.286261,2.900391 -2.873047,2.900391 -1.586906,0 -2.871094,-1.296808 -2.871093,-2.900391 0,-0.392048 0.07851,-0.76531 0.21875,-1.105469 l 0.0332,-0.07617 -3.1093754,-1.96289 -0.056641,0.06445 C 6.5820507,11.51799 5.8233214,11.900391 4.9707031,11.900391 3.3838389,11.900391 2.0996094,10.603622 2.0996094,9 c 0,-1.6036212 1.2842264,-2.9003906 2.8710937,-2.9003906 0.8526182,0 1.6113473,0.3824766 2.1386719,0.9804687 l 0.056641,0.064453 3.109375,-1.9628906 -0.0332,-0.076172 C 10.101955,4.7653141 10.023437,4.3919471 10.023438,4 c 0,-1.6037039 1.284186,-2.9003906 2.871093,-2.9003906 z m 0,0.8007812 c -1.147772,0 -2.080078,0.9423728 -2.080078,2.0996094 0,1.1571618 0.932302,2.0996094 2.080078,2.0996094 1.147667,0 2.082031,-0.9424429 2.082031,-2.0996094 0,-1.1572413 -0.934369,-2.0996094 -2.082031,-2.0996094 z m 0,0.1992188 c 1.038311,0 1.88086,0.8504269 1.88086,1.9003906 0,1.0498813 -0.842554,1.9003906 -1.88086,1.9003906 -1.038427,0 -1.880859,-0.8505046 -1.880859,-1.9003906 0,-1.0499684 0.842427,-1.9003906 1.880859,-1.9003906 z M 4.9707031,6.9003906 C 3.8229629,6.9003906 2.890625,7.842837 2.890625,9 c 0,1.1572 0.9323415,2.099609 2.0800781,2.099609 1.1476812,0 2.0820313,-0.942405 2.0820313,-2.099609 0,-1.1571665 -0.9343465,-2.0996094 -2.0820313,-2.0996094 z m 0,0.1992188 c 1.0383256,0 1.8808594,0.8505093 1.8808594,1.9003906 0,1.049922 -0.8425302,1.900391 -1.8808594,1.900391 -1.0383905,0 -1.8808594,-0.850465 -1.8808593,-1.900391 0,-1.0498848 0.8424724,-1.9003906 1.8808593,-1.9003906 z m 7.9238279,4.8007816 c -1.147772,0 -2.080078,0.942373 -2.080078,2.099609 0,1.157162 0.932302,2.099609 2.080078,2.099609 1.147667,0 2.082031,-0.942442 2.082031,-2.099609 0,-1.157241 -0.934369,-2.099609 -2.082031,-2.099609 z m 0,0.199218 c 1.03831,0 1.88086,0.850428 1.88086,1.900391 0,1.049881 -0.842554,1.900391 -1.88086,1.900391 -1.038427,0 -1.880859,-0.850505 -1.880859,-1.900391 0,-1.049968 0.842427,-1.900391 1.880859,-1.900391 z"
         id="path30" />
   </g>

</svg>
