<?xml version="1.0" encoding="UTF-8"?>
<svg width="24px" height="24px" viewBox="0 0 24 24" version="1.1" xmlns="http://www.w3.org/2000/svg" xmlns:xlink="http://www.w3.org/1999/xlink">
    <title>user</title>
    <path d="M8.15447895,13.7611407 C3.4826184,13.7611407 0,16.7917449 0,21.2149794 L0,21.7064166 C0,24 3.73741378,24 8.49419576,24 L13.5058042,24 C18.0077597,24 22,24 22,21.7064166 L22,21.2149794 C22,16.7917449 18.5173816,13.7611407 13.8455522,13.7611407 L8.15447895,13.7611407 Z M10.7026506,12.614364 C14.3552674,12.614364 17.413092,9.74742215 17.413092,6.30715198 C17.413092,2.78499061 14.4402199,0 10.7026506,0 C6.96523679,0 4.07716171,2.78499061 4.07716171,6.30715198 C4.07716171,9.82931335 7.05018933,12.614364 10.7026506,12.614364 L10.7026506,12.614364 Z" id="Fill-1" fill="#87C4FF" mask="url(#mask-2)"></path>
</svg>