<?xml version="1.0" encoding="UTF-8"?>
<svg width="17px" height="17px" viewBox="0 0 17 17" version="1.1" xmlns="http://www.w3.org/2000/svg" xmlns:xlink="http://www.w3.org/1999/xlink">
    <title>账户余额</title>
   <path d="M11.9076326,9.55942422 C11.9076326,9.32311724 11.9887731,9.12413629 12.1509089,8.96271281 C12.313107,8.80137349 12.5127625,8.72034614 12.7500415,8.72034614 C12.9872997,8.72034614 13.1869553,8.80137349 13.3490081,8.96271281 C13.5112891,9.12413629 13.5923674,9.32311724 13.5923674,9.55942422 C13.5923674,9.79568911 13.5112891,9.99788928 13.3490081,10.1655618 C13.1869553,10.3334868 12.9872997,10.4174809 12.7500415,10.4174809 C12.5127625,10.4174809 12.313107,10.3334868 12.1509089,10.1655618 C11.9887731,9.99782616 11.9076326,9.79568911 11.9076326,9.55942422 L11.9076326,9.55942422 Z M14.4538889,2.79043182 L5.95390969,2.79043182 C6.62810243,2.44235718 7.26477546,2.10661232 7.86380427,1.78319726 C8.38820868,1.50958531 8.90620071,1.23597335 9.41786337,0.962761157 C9.92946377,0.689485847 10.3287748,0.478090941 10.6160662,0.328429154 C11.053063,0.0920590563 11.4430564,-0.0165946011 11.7861293,0.00204737036 C12.1292645,0.0207945448 12.4192953,0.0798134272 12.656512,0.179167139 C12.9312899,0.316183525 13.1685689,0.496333141 13.3683075,0.719973676 L14.4538889,2.79043182 Z M17,14.6497555 C17,14.8862939 16.9593882,15.1066521 16.878476,15.3117138 C16.7974392,15.5162915 16.6819748,15.6966095 16.5321864,15.8523731 C16.3823981,16.0078631 16.2076036,16.129099 16.007865,16.2154707 C15.8082303,16.3022632 15.5897526,16.3458382 15.3524736,16.3461538 L1.76010625,16.3461538 C1.52295177,16.3461538 1.29829003,16.3027681 1.08618328,16.2154707 C0.874097286,16.1284468 0.686934507,16.0072108 0.524259152,15.8523731 C0.361542293,15.6971145 0.233730389,15.5167755 0.140263136,15.3117138 C0.0466921225,15.1063365 0,14.8856417 0,14.6497555 L0,5.3450552 C0,4.87229396 0.165393874,4.47128117 0.495932597,4.14195371 C0.826678841,3.81254207 1.22941396,3.64792042 1.70384743,3.64792042 L15.2962148,3.64792042 C15.770669,3.64792042 16.1733212,3.81254207 16.5038806,4.14195371 C16.8346476,4.47128117 17,4.87229396 17,5.3450552 L17,7.88093141 L12.7500415,7.88093141 C12.2755043,7.88093141 11.8729352,8.04252322 11.5422927,8.36583307 C11.2114634,8.6893323 11.0461733,9.08731524 11.0461733,9.55942422 C11.0586038,9.88292344 11.1272516,10.1688442 11.252262,10.4174809 C11.3521831,10.6287917 11.5174732,10.8213552 11.7483398,10.9955924 C11.9791234,11.1699348 12.313107,11.2569588 12.7500415,11.2569588 L17,11.2569588 L17,14.6508075 L17,14.6497555 Z" id="Fill-1" fill="#2595FF" mask="url(#mask-2)"></path>
</svg>