<!-- Generated by IcoMoon.io -->
<svg version="1.1" xmlns="http://www.w3.org/2000/svg" width="32" height="32" viewBox="0 0 32 32">
<title>zygl</title>
<path fill="#ccc" d="M27.932 7.823c-0.156-0.672-0.931-1.22-1.717-1.22h-9.687c-0.909-0.057-1.771-0.437-2.435-1.073l-0.857-0.887c-0.665-0.644-1.531-1.029-2.447-1.087h-4.625c-0.826 0.030-1.504 0.677-1.589 1.515l-0.417 3.97h24.061l-0.287-1.208v-0.010zM28.88 10.665h-25.78c-1.307 0-1.374 0.684-1.303 1.52l1.184 14.741c0.071 0.834 0.256 1.518 1.563 1.518h22.912c1.333 0 1.492-0.684 1.563-1.518l1.184-14.741c0.071-0.836 0-1.518-1.3-1.518l-0.024-0.002z"></path>
</svg>
