<?xml version="1.0" standalone="no"?>
<!DOCTYPE svg PUBLIC "-//W3C//DTD SVG 1.1//EN" "http://www.w3.org/Graphics/SVG/1.1/DTD/svg11.dtd" >
<svg xmlns="http://www.w3.org/2000/svg">
<defs>
  <font id="saasfont" horiz-adv-x="1500">
    <font-face font-family="saasfont"
      units-per-em="1000" ascent="1000"
      descent="0" />
    <missing-glyph horiz-adv-x="0" />
    <glyph glyph-name="bell"
      unicode="&#xEA01;"
      horiz-adv-x="1000" d="M500 1000C530 1000 554.75 974.25 557.6875 941.3125L558 934.625V892.0625C691.25 860.875 790.0625000000001 733.75 790.0625000000001 575C790.0625000000001 366 855.5625000000001 302.1562499999999 890.6250000000001 259.7499999999999C901.5312500000002 246.59375 906.3750000000002 230.8125 906.2812500000002 215.4062499999999C906.1250000000002 183.9687499999999 885.5625000000001 153.9999999999999 854.4375000000002 150.4062499999999L848.0937500000002 149.9999999999998H152.0000000000003C117.3750000000003 149.9999999999998 94.0000000000003 181.8437499999998 93.8125000000002 215.4062499999998C93.6250000000003 231.5312499999998 99.1562500000002 247.2187499999998 109.4687500000002 259.7499999999998L125.5625000000003 278.9999999999998C161.4062500000003 322.6874999999998 210.0625000000003 394.9999999999998 210.0625000000003 574.9999999999998C210.0625000000003 729.2499999999998 303.2812500000003 853.5624999999998 430.7500000000003 889.1562499999998L442.0625000000003 892.0624999999998V934.6249999999998C442.0625000000003 970.7187499999998 468.0000000000003 1000.0312499999998 500.0625000000003 1000.0312499999998zM500 0C556.09375 0 601.5625 44.78125 601.5625 100H398.4375C398.4375 44.78125 443.90625 0 500 0z" />
    <glyph glyph-name="bof"
      unicode="&#xEA02;"
      horiz-adv-x="1000" d="M812.50625 500L187.5 125L187.5 875L812.50625 500L812.50625 500zM812.50625 500" />
    <glyph glyph-name="client"
      unicode="&#xEA03;"
      horiz-adv-x="875" d="M437.5 522.7052156249999C300.3584468750001 522.7052156249999 189.177596875 629.5504512499999 189.177596875 761.35508375C189.177596875 893.1560025 300.3584468750001 1000 437.5 1000C573.6510406250001 998.67051565 683.29138125 892.21768875 683.29138125 761.364986875C683.29138125 630.512285 573.6510406250001 524.064409375 437.5 522.72997375L437.5 522.7052156249999zM341.147213125 513.0584081249999L425.6859800000001 431.8125550000001L354.737458125 181.81379375L437.5 90.8926625L520.262541875 181.81379375L449.31402 431.8125550000001L533.852786875 513.0584081249999C736.75071875 471.855534375 875 307.62831875 875 193.1626875C875 61.386525 574.64284125 0 437.5 0C300.3584468750001 0 0 61.386525 0 193.1626875C0 307.62831875 138.24927875 471.855534375 341.147213125 513.0584081249999L341.147213125 513.0584081249999z" />
    <glyph glyph-name="close"
      unicode="&#xEA04;"
      horiz-adv-x="1000" d="M597.7466181818181 500.2663090909091L980.1291772727272 882.8584772727273C1006.4431045454546 909.1878686363636 1006.4431045454546 952.176799090909 980.1291772727272 977.9696326363636L977.9814772727271 980.1158650454546C965.0900272727272 993.0142496363636 948.4446863636364 1000 930.18005 1000C911.9206590909092 1000 895.2753181818182 993.0142496363636 882.3851818181818 980.1158650454546L500.5349590909091 596.9910768181819L118.1550227272727 980.1158650454546C105.2635718181818 993.0142496363636 88.6169227272727 1000 70.3535972727273 1000C52.0928940909091 1000 35.4475557272727 993.0142496363636 22.5561050909091 980.1158650454546L20.4097152727273 977.9696326363636C7.5195758181818 965.071248090909 0 948.415645 0 930.1477436363635C0 911.8732831818182 6.9819949545455 895.2189918181818 19.8734455909091 882.3192954545455L402.2533813636364 499.7336909090909L19.8734455909091 117.1415227272727C-6.4431029545455 90.8121318181818 -6.4431029545455 47.8218909090909 19.8734455909091 22.0303681818182L22.0185242272727 19.8828227272727C34.9099748636364 6.9844363636363 51.5566240909091 0 69.814705 0C88.0806527272727 0 104.72468 6.9844363636363 117.6161304545455 19.8828227272727L499.9973772727273 402.4697409090909L882.3851818181818 19.8828227272727C895.2753181818182 6.9844363636363 911.9206590909092 0 930.18005 0C948.4446863636364 0 965.0900272727272 6.9844363636363 977.9814772727271 19.8828227272727L980.1291772727272 22.0303681818182C993.0206272727272 34.92875 1000 51.5830454545455 1000 69.8522545454546C1000 88.1267181818182 993.0206272727272 104.7810090909092 980.1291772727272 117.6793909090909L597.7466181818181 500.2663090909091z" />
    <glyph glyph-name="cpzx"
      unicode="&#xEA05;"
      horiz-adv-x="1000" d="M541.90625 55.59375C517.5937500000001 54.71875 497.5000000000001 72.9375 496.5625 96.03125V449.78125C496.5625 478.65625 519 507.1250000000001 553.15625 521.34375L817.375 653.78125C825.7812499999999 657.78125 834.6874999999999 660 843.5625 660.90625C867.875 661.78125 888 643.5625 888.90625 620.46875V266.7187499999999C888.90625 237.8437499999999 866.46875 209.3749999999999 832.3125 195.1562499999999L568.125 62.28125C560.1875 58.28125 551.28125 55.6249999999999 541.9375 55.6249999999999zM402.5625 55.59375C392.28125 56.03125 382 58.6875 372.15625 62.6875L112.15625 191.5625C81.75 205.7812499999999 55.5625 238.2187499999999 55.5625 263.1249999999999V618.21875C54.625 641.34375 73.8125 660.4374999999999 98.125 661.3437499999999H100.9375C110.28125 660.90625 119.15625 658.2187499999999 127.125 654.2187499999999L391.34375 525.3437499999999C421.75 511.1249999999999 447.90625 478.6874999999999 447.90625 453.7812499999999V102.6874999999999C449.3125 78.2499999999999 429.1875 57.375 403.46875 56.03125C403 55.59375 402.53125 55.59375 402.53125 55.59375zM462.875 557.3125C444.625 556.875 426.40625 560.875 410.03125 567.96875L115.9062499999999 707.96875C93.4687499999999 715.09375 81.7812499999999 729.3125 81.7812499999999 747.53125S92.9999999999999 779.96875 112.1874999999999 790.625L410.0625 933.71875C427.84375 941.28125 447 944.84375 466.6249999999999 944.375C484.8749999999999 944.8125 503.09375 940.8125 519.4687499999999 933.71875L813.5937499999999 797.28125C832.3124999999999 786.625 843.9999999999999 772.40625 843.9999999999999 754.15625S832.3124999999999 722.15625 813.5937499999999 711.5L515.7187499999999 567.9375C504.4999999999999 560.84375 481.5937499999999 557.28125 462.8749999999999 557.28125z" />
    <glyph glyph-name="del"
      unicode="&#xEA06;"
      horiz-adv-x="1000" d="M171 174.375V707.4062499999999H769.5000000000001V174.3124999999999C769.5000000000001 122.3437499999999 743.40625 116.1874999999999 714.6875 116.1874999999999H235.7187500000001C197.46875 116.1874999999999 171 122.2187499999999 171 174.2499999999999V174.375zM351.8125 767.15625C356 833.65625 409.96875 886.5625 471.75 886.5625C533.40625 886.5625 588.03125 833.53125 591.5625 767.15625L351.8125 767.15625zM469.34375 944.4375C371.875 944.5625 291.875 868.25 288.53125 772H99.5625C74.1875 772 55.53125 765.96875 55.53125 740.8125C55.53125 715.875 74 706.75 99.5625 706.75H116V178.8750000000001C116 96.8125000000001 154.375 55.5625000000001 235.5625 55.5625000000001H708.125C804.5 55.5625000000001 829.15625 103.8125000000001 829.15625 178.8750000000001L827.96875 706.8125H850.8125000000001C876.1875000000001 706.8125 895.0625000000001 715.75 895.0625000000001 740.875C895.0625000000001 765.875 858.59375 771.8125 833.1250000000001 771.8125H649.8750000000001C646.9062500000001 868.1562500000001 566.90625 944.65625 469.3750000000001 944.4375000000002V944.4375000000002zM617.96875 257.03125C634.5 257.03125 648.15625 265.8750000000001 648.15625 292.1250000000001V560.9375000000001C648.15625 587.1562500000001 634.625 598.5937500000001 617.96875 598.5937500000001C601.4375 598.5937500000001 587.7812499999999 587.1562500000001 587.7812499999999 560.9375000000001V292C587.7812499999999 265.9687500000001 600.9374999999999 256.9687500000001 617.96875 256.9687500000001V257.03125zM471.71875 256.40625C488.25 256.40625 501.90625 265.8437499999999 501.90625 292.125V560.9375C501.90625 587.15625 488.375 598.78125 471.71875 598.78125C455.1875 598.78125 441.5312500000001 587.15625 441.5312500000001 560.9375V292C441.5312500000001 265.9687500000001 455.1562500000001 256.3437500000001 471.71875 256.3437500000001V256.4062500000001zM332.65625 253.09375C349.1875 253.09375 362.84375 265.8125 362.84375 292.0625V561C362.84375 587.21875 349.3125 598.59375 332.65625 598.59375C316.125 598.59375 302.46875 587.21875 302.46875 561V292.0625C302.46875 266.03125 315.7500000000001 253.09375 332.65625 253.09375H332.65625z" />
    <glyph glyph-name="down"
      unicode="&#xEA07;"
      horiz-adv-x="1500" d="M1467.5 786.09375L825.875 36.65625C806.6875 13.3437500000001 779.0625 0 750.03125 0S693.34375 13.34375 674.1875 36.65625L32.5625000000001 786.09375C1.25 821.4375 -8.4375 872.9375 7.75 918.40625S63.0000000000001 995.65625 108.4062500000001 1000H1391.125C1436.71875 995.875 1475.9375 964.28125 1492.125 918.59375C1508.5 872.90625 1498.8124999999998 821.59375 1467.5 786.09375z" />
    <glyph glyph-name="download"
      unicode="&#xEA08;"
      horiz-adv-x="1000" d="M943.8125 120.96875C943.8125 99.9687499999999 926.4375 82.90625 905 82.90625H94.375C72.9375 82.90625 55.5625 99.9375 55.5625 120.96875S72.9375 159.03125 94.375 159.03125H905C926.4375 159.03125 943.8125 141.9999999999999 943.8125 120.96875zM499.59375 265.75C478 265.75 460.5 281.71875 460.5 301.3750000000001V908.8125C460.5 928.5 478.0000000000001 944.4375 499.59375 944.4375S538.6875 928.5 538.6875 908.8125V301.3750000000001C538.6875 281.6875000000001 521.1875 265.75 499.59375 265.75zM527.25 276.40625C511.96875 262.5 487.21875 262.5 471.96875 276.40625L178.5625 543.75C163.28125 557.65625 163.28125 580.21875 178.5625 594.125S218.59375 608.03125 233.8437500000001 594.125L527.25 326.75C542.5 312.84375 542.5 290.2812499999999 527.25 276.375zM471.9375 276.40625C456.65625 290.3125 456.65625 312.875 471.9375 326.78125L765.34375 594.15625C780.59375 608.0625 805.34375 608.0625 820.6249999999999 594.15625S835.90625 557.6875 820.6249999999999 543.78125L527.21875 276.40625C511.9374999999999 262.5 487.1874999999999 262.5 471.9374999999999 276.40625z" />
    <glyph glyph-name="folder"
      unicode="&#xEA09;"
      horiz-adv-x="1156.25" d="M114.21875 998.6875H666.28125C694.9062500000001 998.6875 722.5 987.1875 743.5625 966.46875L886.375 826.0625H1027.96875C1091.0625 826.0625 1142.1875000000002 771.34375 1142.1875000000002 703.875V304.65625C1142.1875000000002 215.5937499999999 1074.6875 143.375 991.4062500000002 143.375H150.7500000000002C110.7500000000002 143.375 72.4062500000002 160.375 44.1250000000002 190.625S-0.0312499999998 261.90625 -0.0312499999998 304.6875V876.53125C-0.0312499999998 908.9375 12.0000000000002 940.03125 33.4375000000002 962.9375S83.9062500000002 998.71875 114.1875000000002 998.71875zM142.84375 214.28125H928.5625V785.71875H142.84375zM114.28125 642.84375H1028.5625C1104.7500000000002 642.84375 1142.84375 603.875 1142.84375 525.96875V116.8750000000001C1142.84375 38.9375000000001 1104.75 0 1028.5625 0H114.28125C38.09375 0 0 38.96875 0 116.8750000000001V525.96875C0 603.90625 38.09375 642.84375 114.28125 642.84375z" />
    <glyph glyph-name="gps"
      unicode="&#xEA0A;"
      horiz-adv-x="789.4736842105262" d="M394.7332889473684 418.7184526315789C348.0532889473684 418.838247368421 303.3334042105263 437.7602578947368 270.42102 471.3152999999999C237.5039552631579 504.8644163157894 219.0964242105263 550.3019084210525 219.2453052631579 597.6170126315789C219.1092968421053 644.9178831578947 237.5273594736842 690.3328394736841 270.4432542105264 723.86772C303.3556384210526 757.3990426315788 348.0673315789474 776.2973294736842 394.7332889473684 776.4040794736841C441.4191399999999 776.2842821052631 486.1390247368421 757.3622731578946 519.0514089473684 723.808414736842C551.9637947368421 690.2533699999999 570.3713263157895 644.820622105263 570.2212894736842 597.5055184210526C570.3713263157895 550.1951589473683 551.9637947368421 504.7624110526315 519.0467284210525 471.2180421052631C486.1343442105263 437.6712999999999 441.4097784210526 418.7694526315788 394.7332889473684 418.6627052631578L394.7332889473684 418.7184526315789zM394.7332889473684 999.9999999999998C176.7298484210526 999.9999999999998 0 819.8406042105262 0 597.5055184210526C0 486.390757368421 44.2073292105263 385.7944157894736 115.5999952631579 312.9222052631578L394.7332889473684 28.3400789473684L673.8677526315789 312.9222052631578C748.0806421052631 388.5094210526315 789.6596631578948 490.8671352631578 789.4730578947367 597.5055184210526C789.4730578947367 819.8406042105262 612.7414105263157 999.9999999999998 394.7332889473684 999.9999999999998L394.7332889473684 999.9999999999998z" />
    <glyph glyph-name="grzy"
      unicode="&#xEA0B;"
      horiz-adv-x="1000" d="M664.6875 191.125C664.6875 187.65625 661.15625 184.1875 661.15625 184.1875H324.71875C324.71875 184.1875 324.71875 191.125 321.1875 194.5937499999999C317.6562500000001 211.9374999999999 314.09375 229.3124999999999 314.09375 246.6562499999999C314.09375 336.90625 381.375 409.8124999999999 469.9062499999999 420.2187499999999C416.78125 430.6249999999998 377.84375 475.7499999999999 377.84375 531.3124999999998C377.84375 593.8124999999998 430.96875 645.8749999999999 494.71875 645.8749999999999S611.5937499999999 593.8124999999998 611.5937499999999 531.3124999999998C611.5937499999999 475.7812499999998 572.6249999999999 430.6562499999999 519.5312499999999 420.2187499999999C608.0625 409.8124999999999 675.3437499999999 336.9062499999999 675.3437499999999 246.6562499999998C678.8749999999999 225.8437499999998 675.3437499999999 208.4687499999998 664.7187499999999 191.1249999999998zM926.71875 538.28125C901.9375000000002 562.59375 558.40625 909.71875 547.7812500000001 923.625S519.4375000000001 944.46875 498.1875000000001 944.46875C476.9375000000001 944.46875 459.2500000000001 934.0625 448.6250000000001 920.15625C370.7187500000001 843.78125 73.2500000000001 545.21875 73.2500000000001 538.28125C62.6250000000001 531.34375 55.5312500000001 517.46875 55.5312500000001 503.5624999999999C55.5312500000001 479.25 76.7812500000001 458.4374999999999 101.5625000000001 458.4374999999999H147.5937500000001V215.4375C147.5937500000001 163.3749999999999 190.0937500000001 107.8125 257.3750000000001 111.28125H746.0937500000001C806.3125000000001 107.8125 855.8750000000001 156.40625 855.8750000000001 215.4375V458.4374999999999H901.9062500000002C926.6875000000002 458.4374999999999 944.4062500000002 479.25 944.4062500000002 503.5624999999999C940.8750000000002 520.9062499999999 930.2500000000002 531.3437499999999 926.6875000000002 538.28125z" />
    <glyph glyph-name="gwc"
      unicode="&#xEA0C;"
      horiz-adv-x="1000" d="M326.63671875 239.9560546875C278.7451171875 239.9560546875 240.388671875 201.1669921875 240.388671875 153.275390625S278.74609375 66.59375 326.63671875 66.59375S413.3173828125 105.3828125 413.3173828125 153.275390625C413.318359375 201.166015625 374.5283203125 239.9560546875 326.63671875 239.9560546875zM66.591796875 933.408203125V846.7265625H153.2734375L309.0839843750001 517.9873046875L250.5732421875001 411.8027343749999C243.8554687500001 399.2343749999999 239.9541015625001 385.1474609374999 239.9541015625001 369.9794921875C239.9541015625001 322.0878906249999 278.7431640625 283.2978515625 326.6357421875 283.2978515625H846.7236328125V369.9794921875H345.056640625C338.9892578125 369.9794921875 334.2216796875 374.7470703124999 334.2216796875 380.814453125C334.2216796875 382.765625 334.6552734375001 384.4980468749999 335.521484375 386.0156249999999L374.310546875 456.6601562499999H697.19921875C729.705078125 456.6601562499999 758.0927734375 474.6474609375 773.0458984375 501.30078125L927.9892578124998 782.58203125C931.4560546874998 788.650390625 933.4062499999998 795.8017578125 933.4062499999998 803.38671875C933.4062499999998 827.439453125 913.9023437499998 846.7265625 890.0664062499999 846.7265625H249.2734375L208.099609375 933.408203125H66.5927734375zM760.0429687500001 239.9570312499999C712.1513671875 239.9570312499999 673.794921875 201.1679687499999 673.794921875 153.2763671874999S712.1523437500001 66.5947265624999 760.0429687500001 66.5947265624999S846.7236328125001 105.3837890624999 846.7236328125001 153.2763671874999C846.7236328125001 201.1669921874999 807.9345703125001 239.9570312499999 760.0429687500001 239.9570312499999z" />
    <glyph glyph-name="gywm"
      unicode="&#xEA0D;"
      horiz-adv-x="1000" d="M427.46875 222.21875C396.59375 222.21875 374 240.9687500000001 395.5625000000001 323.375L430.96875 469.46875C437.09375 492.90625 438.125 502.28125 430.96875 502.28125C421.75 502.28125 381.625 486.09375 357.9375 470.15625L342.53125 495.4375000000001C417.65625 558.15625 504.0312500000001 594.9375000000001 541.0312500000001 594.9375000000001C571.875 594.9375000000001 577.0000000000001 558.4062500000001 561.5937500000001 502.2500000000001L521.03125 348.6250000000001C513.8750000000001 321.4687500000001 516.9687500000001 312.0937500000001 524.1250000000001 312.0937500000001C533.3437500000001 312.0937500000001 563.7500000000001 323.3125000000001 593.59375 346.78125L611.03125 323.34375C538.0312500000001 250.3437500000001 458.3750000000001 222.21875 427.4687500000001 222.21875zM543.34375 796.28125C588.5 796.28125 601.84375 770.09375 601.84375 740.125C601.84375 702.65625 571.84375 668.03125 520.6875 668.03125C477.8749999999999 668.03125 457.5312499999999 689.5625 458.75 725.125C458.78125 755.125 483.90625 796.28125 543.3749999999999 796.28125zM494.0625 944.40625C248.6562500000001 941.125 52.3125 739.46875 55.59375 494C58.875 248.6875 260.53125 52.3125 505.9374999999999 55.59375S947.6874999999998 260.53125 944.4062499999998 506C941.1562499999998 751.34375 739.4687499999999 947.6875 494.0624999999999 944.40625z" />
    <glyph glyph-name="hyzx"
      unicode="&#xEA0E;"
      horiz-adv-x="1000" d="M471.1331166666667 125.9196499999999L69.4095392777778 545.6740349999999C54.6106233055556 561.6412866666667 50.3808130055556 589.017895 63.0669918888889 607.2646783333333L225.8713277777778 867.3301754444444C234.3276966666667 881.0167251666667 249.1266122222222 887.8611695888889 261.8127911111112 887.8611695888889L737.5417888888888 887.8611695888889C752.3407055555556 887.8611695888889 765.0268833333333 881.0167251666667 773.48325 867.3301754444444L936.288672222222 609.5500583333333C948.97485 589.017895 946.8577777777778 563.9219883333333 929.945038888889 547.9547366666666L530.3342005555555 125.9196499999999C513.4182111111111 107.6705277777776 488.0501894444445 107.6705277777776 471.1331166666667 125.9196499999999M472.0175794444445 291.6048755555556C473.8898172222222 289.3962583333333 477.6390972222222 284.9699544444444 481.3874161111111 282.7602038888888C477.6390972222222 284.9699544444444 473.8898172222222 287.180838888889 472.0175794444445 291.6048755555556M498.2506244444444 353.5247166666667L380.2073967222222 490.6346938888889C374.5868395555556 497.2673469388889 367.0930835555556 499.4782312927778 361.4715657777778 499.4782312927778C337.1151777111111 499.4782312927778 323.9999039444445 464.0961451111111 342.7357348888889 441.9839000000001L473.8903938888889 291.6052155555556C475.7655138888889 289.3954650000001 479.5109511111111 284.970295 483.2602305555556 282.7605444444445C487.0047072222222 280.5507938888889 490.7530261111111 278.3376416666667 492.6291066666667 278.3376416666667L500.1228627777778 278.3376416666667C509.4888566666667 278.3376416666667 518.8586933333333 282.7605444444445 526.3534099999999 291.6052155555556L657.5099905555556 441.9839000000001C676.2467816666666 461.8852607777778 663.1315083333333 499.4782312927778 638.7741594444444 499.4782312927778C631.276561111111 499.4782312927778 623.7837655555555 495.0575963722222 620.0383283333334 490.6346938888889L498.2506244444444 353.5247166666667z" />
    <glyph glyph-name="jszx"
      unicode="&#xEA0F;"
      horiz-adv-x="1000" d="M740.0625 55.5625C730.25 55.5625 721.03125 59.21875 713.6874999999999 66.5L584.8749999999999 194.15625C570.7812499999999 208.75 570.7812499999999 231.84375 585.4999999999999 245.8125C599.5937499999999 259.78125 622.9062499999999 259.78125 637.0312499999999 245.8125L765.8437499999999 118.15625C779.9375 104.1875 779.9375 81.09375 765.8437499999999 66.5C759.0937499999999 59.21875 749.2812499999999 55.5625 740.0937499999999 55.5625zM259.1875 55.5625C238.9375000000001 55.5625 222.375 71.9687499999999 222.375 92.03125C222.375 101.75 226.0625000000001 110.875 232.7812500000001 117.5625L361.5937500000001 245.21875C376.3125000000001 259.1875 399.6250000000001 259.1875 413.71875 244.6250000000001C427.8125000000001 230.6562500000001 427.8125000000001 207.53125 413.71875 193.5625000000001L284.90625 65.90625C278.7812500000001 59.2187500000001 268.9687500000001 55.5625000000001 259.1562500000001 55.5625000000001zM462.8125 844.53125V906.53125C462.8125 926.59375 479.375 943 499.625 943S536.4375 926.59375 536.4375 906.53125V845.125zM781.75 607.28125L781.15625 606.65625L588.09375 433C558.8124999999999 406.5625 499.625 400.28125 472.1562499999999 434.25C470.9687499999999 435.5 470.3749999999999 436.75 464.3749999999999 444.9375C463.7812499999999 445.5625 463.1874999999999 446.1875 463.1874999999999 446.8125C460.1874999999999 451.2187499999999 456.0312499999999 456.8749999999999 450.6249999999999 465.0624999999999C436.875 485.1874999999999 412.96875 521.0625 405.1875 531.125C395.03125 537.40625 383.0625 536.15625 374.09375 527.96875L232.4375 397.0937499999999C219.875 385.78125 201.34375 387.0312499999999 190.59375 400.2499999999999S181.03125 432.9687499999999 193.59375 444.2812499999999L335.84375 575.1562499999998C366.9375 602.8437499999998 411.15625 604.7187499999998 444.03125 579.5624999999998C449.40625 575.7812499999998 450 575.1562499999998 500.2187499999999 500.9062499999998C504.4062499999999 494.6249999999999 509.1874999999999 487.6874999999998 512.1874999999999 482.6562499999998C516.9687499999999 476.9999999999998 522.9375 473.8437499999998 530.125 473.2187499999998S544.46875 475.0937499999998 549.84375 480.1562499999999L742.90625 653.1874999999998C755.46875 664.5312499999998 774 662.6249999999998 784.75 649.4062499999998C794.9062499999999 638.0937499999998 793.7187499999999 618.5624999999998 781.75 607.2499999999998zM829.5625 831.90625H169.6875C137.40625 831.90625 111.125 797.9375 111.125 756.40625V242.375C111.125 200.84375 137.4375 166.875 169.6875 166.875H828.96875C861.2500000000001 166.875 887.53125 200.84375 887.53125 242.375V756.40625C888.1249999999999 797.9375 861.84375 831.90625 829.5625 831.90625z" />
    <glyph glyph-name="mhc-member"
      unicode="&#xEA10;"
      horiz-adv-x="1428.5714285714287" d="M530.1860585714286 167.1686142857143C598.5710735714285 167.1686142857143 648.2057421428572 189.29075 697.4841535714286 237.9566285714285C677.3225307142857 263.5197785714286 654.9871171428572 288.7513792857143 633.932977857143 314.3798207142858C605.3524492857143 285.8672192857144 573.9318678571428 267.9093857142857 533.3836178571429 267.9093857142857C483.7539492857143 267.9093857142857 441.2244128571429 301.3966214285714 441.2244128571429 354.22936C441.2244128571429 406.3349778571429 483.7539492857143 440.5493314285715 531.9435907142857 440.5493314285715C685.3539292857142 440.5493314285715 718.1870357142858 166.2481928571429 941.4236642857142 166.2481928571429C1050.3569285714286 166.2481928571429 1142.3261357142858 236.2809214285715 1142.3261357142858 353.50864C1142.3261357142858 472.0126607142856 1049.6531714285716 541.3195457142857 939.2798785714286 541.3195457142857C870.8948642857143 541.3195457142857 820.0151714285714 521.3979771428571 771.2792714285714 472.0126607142856C793.5834285714286 447.1343821428572 814.4775642857143 420.6213621428571 836.0804642857144 394.9993207142857C863.9222357142858 422.8219257142858 895.3440642857142 440.7439135714285 935.18355 440.7439135714285C981.26815 440.7439135714285 1027.3477571428573 407.2848428571429 1027.3477571428573 357.1800871428572C1027.3477571428573 302.1237421428572 988.2120285714286 267.1899500000001 935.8910642857144 267.1899500000001C787.3095642857143 267.1899500000001 747.5038285714286 541.4846842857143 529.994805 541.4846842857143C421.9603064285714 541.4846842857143 326.4072885714286 473.6474021428571 326.4072885714286 355.899945C326.4072885714286 235.2004785714286 419.2702564285715 167.13405 530.1860585714286 167.13405L530.1860585714286 167.1686142857143zM1428.5714285714287 283.63465C1428.5714285714287 127.3190785714286 1302.329092857143 0 1147.5112285714288 0C1141.9736285714287 0 1137.1397857142858 0.7194428571428 1132.149692857143 0.7194428571428L283.2039892857144 0.7194428571428C126.9460985714286 10.0606357142857 0 132.2348214285714 0 290.7522407142857C0 397.2242071428571 56.4172937142857 490.13435 140.8663557142857 540.7998085714285C135.2375021428572 559.7574307142856 132.41495 579.4741771428571 132.4824507142857 599.295895C132.4824507142857 708.45872 219.6178128571429 797.1687164285714 328.5510778571429 797.1687164285714C373.2244050000001 797.1687164285714 415.1739307142857 781.4421728571429 448.5532985714286 755.6485921428571C519.8333671428571 905.5800978571428 668.6061192857143 1000.5205458742857 831.4416285714286 999.9978527268572C1066.4209785714286 999.9978527268572 1256.2482428571427 807.7900542857143 1256.2482428571427 571.3388749999999C1256.2482428571427 562.7222392857143 1255.5407285714286 554.1363271428571 1255.5407285714286 545.7155535714286C1356.6313499999999 502.9152871428572 1428.5714285714287 401.6150942857144 1428.5714285714287 283.63465L1428.5714285714287 283.63465z" />
    <glyph glyph-name="more"
      unicode="&#xEA11;"
      horiz-adv-x="1000" d="M57.1482205 0C42.4910197857143 0 27.8406818571429 5.4478 16.6817876428571 16.3350571428572C-5.6102653357143 38.0595428571428 -5.5485002357143 73.2317142857144 16.7950236428571 94.9028142857143L433.4743792857143 498.9190821428572L16.6817876428571 905.2088814285714C-5.6102653357143 926.9316928571428 -5.5485002357143 962.1105372142858 16.7950236428571 983.7816395C39.1385475714286 1005.4544097928572 75.3157378571429 1005.39436055 97.6077907142857 983.6715492142858L554.7535785714285 538.0261478571429C565.4629600000001 527.5942607142856 571.4610371428572 513.4560021428572 571.4285714285714 498.71725C571.4147135714286 483.9851707142857 565.3754600000001 469.8585878571429 554.64549 459.4583935714285L97.4997014285714 16.2249714285714C86.3545328571429 5.4027642857143 71.7367935714286 0 57.1482205 0M485.7222414285714 0C471.0719507142857 0 456.4147978571429 5.4478 445.2559392857143 16.3350571428572C422.9656742857143 38.0595428571428 423.0188607142857 73.2317142857144 445.3623121428572 94.9028142857143L862.0489 498.9057378571428L445.2559392857143 905.2088814285714C422.9656742857143 926.9316928571428 423.0188607142857 962.1105372142858 445.3623121428572 983.7816395C467.7143428571429 1005.4544097928572 503.9051414285715 1005.39436055 526.1816807142858 983.6715492142858L983.3259928571428 538.0261478571429C1005.60425 516.2966642857143 1005.5493428571428 481.1311642857142 983.212757142857 459.4583935714285L526.0753078571429 16.2249714285714C514.91645 5.4027642857143 500.3124828571429 0 485.7222414285714 0" />
    <glyph glyph-name="pas-icon"
      unicode="&#xEA12;"
      horiz-adv-x="1000" d="M703.7037041015624 601.8518515625H629.6296298828124V671.2962958984375C629.6296298828124 742.77777734375 571.4814814453124 800.92592578125 499.9999999999999 800.92592578125S370.3703701171874 742.77777734375 370.3703701171874 671.2962958984375V601.8518515625H296.2962958984374V671.2962958984375C296.2962958984374 725.5555546875 317.4999999999999 776.666666015625 356.1111113281249 815.185185546875C394.6296298828126 853.7962958984375 445.7407412109376 875 500 875C554.2592587890625 875 605.3703701171876 853.7962958984375 643.8888886718751 815.185185546875S703.7037041015624 725.5555556640625 703.7037041015624 671.2962958984374V601.8518515624999zM751.8518515625 587.962962890625H248.1481484375C223.7037041015625 587.962962890625 203.7037041015625 567.962962890625 203.7037041015625 543.5185185546875V169.4444443359374C203.7037041015625 145 223.7037041015625 125 248.1481484375 125H751.8518515625C776.2962958984374 125 796.2962958984374 145 796.2962958984374 169.4444443359374V543.5185185546875C796.2962958984374 567.962962890625 776.2962958984374 587.962962890625 751.8518515625 587.962962890625zM527.77777734375 352.7777773437502V306.4814814453126C527.77777734375 291.2037041015627 515.27777734375 278.7037041015627 500 278.7037041015627S472.22222265625 291.2037041015627 472.22222265625 306.4814814453126V352.7777773437502C461.0185185546875 361.2037031250001 453.7037041015625 374.6296289062501 453.7037041015625 389.814814453125C453.7037041015625 415.3703701171876 474.4444453125 436.1111103515625 500 436.1111113281251S546.2962958984375 415.3703701171876 546.2962958984375 389.814814453125C546.2962958984375 374.62962890625 538.9814814453125 361.203703125 527.77777734375 352.7777773437502z" />
    <glyph glyph-name="qz"
      unicode="&#xEA13;"
      horiz-adv-x="1000" d="M694.375 631.9375C771.0937499999999 631.9375 833.3437499999999 690.28125 833.3437499999999 762.15625C833.3437499999999 833.96875 771.125 892.375 694.375 892.375C617.71875 892.375 555.5625 833.96875 555.5625 762.15625C555.5625 690.28125 617.71875 631.9375 694.375 631.9375zM333.25 631.9375C425.3125 631.9375 500 701.875 500 788.1875C500 874.4375 425.34375 944.4375 333.25 944.4375S166.65625 874.4375 166.65625 788.1875C166.65625 701.875 241.1875 631.9375 333.25 631.9375zM934 371.53125C918.90625 485.46875 836.21875 579.875 676.0625 579.875C629 579.875 589.40625 570.9375 555.53125 556.53125C614.28125 506.4687499999999 652.7812500000001 435.6875 663.96875 348.5L668.125 319.4687500000001C675.6875 268.8750000000001 683.6875 213.15625 659.9999999999999 163.5625C665.5625 163.4375 670.3437499999999 163.1875 676.03125 163.1875C990.2187499999998 163.1875 949.0624999999998 257.65625 933.96875 371.5312500000001zM333.3125 579.875C167.5 579.875 81.875 473.65625 66.375 345.4375C50.6875 217.34375 8.09375 111.1249999999999 333.3125 111.1249999999999C658.625 111.1249999999999 615.90625 217.34375 600.25 345.4375C584.8125 473.625 499.1249999999999 579.875 333.3125 579.875z" />
    <glyph glyph-name="refresh"
      unicode="&#xEA14;"
      horiz-adv-x="1000" d="M953.1208636363637 640.6225472727273L749.9988772727272 640.6225472727273C724.088959090909 640.6225472727273 703.1257227272727 661.6217863636364 703.1257227272727 687.5019622727273C703.1257227272727 713.3776527272728 724.088959090909 734.3768918181818 749.9988772727272 734.3768918181818L831.5421727272726 734.3768918181818C757.9877227272727 838.3086995454546 637.0339045454544 906.251635 500.0037363636363 906.251635C275.6374704545455 906.251635 93.7537840909091 724.3623763636364 93.7537840909091 500.0007454545454C93.7537840909091 275.6331409090909 275.6374704545455 93.7483636363636 500.0037363636363 93.7483636363636C724.3640227272728 93.7483636363636 906.247709090909 275.6391181818182 906.247709090909 500.0007454545454C906.247709090909 525.8809227272727 927.2109454545454 546.8741822727272 953.1208636363637 546.8741822727272C979.0008863636364 546.8741822727272 1000 525.8749454545455 1000 500.0007454545454C1000 223.8593318181818 776.1195818181818 0 499.997759090909 0C223.8759336363636 0 0 223.8593318181818 0 500.0007454545454C0 776.1406668181819 223.8759336363636 1000 499.997759090909 1000C667.5795636363636 1000 815.6003681818181 917.3768813636364 906.247709090909 790.7864659090909L906.247709090909 874.9986918181818C906.247709090909 900.8803622727274 927.2109454545454 921.8736218181818 953.1208636363637 921.8736218181818C979.0008863636364 921.8736218181818 1000 900.8803622727274 1000 874.9986918181818L1000 687.5019622727273C1000 661.6217863636364 979.0008863636364 640.6225472727273 953.1208636363637 640.6225472727273" />
    <glyph glyph-name="setting"
      unicode="&#xEA15;"
      horiz-adv-x="1000" d="M500 362.71875C424.21875 362.71875 362.71875 424.21875 362.71875 500S424.21875 637.28125 500 637.28125C575.78125 637.28125 637.28125 575.78125 637.28125 500S575.78125 362.71875 500 362.71875zM911.84375 500C911.84375 558.46875 948.5625 608.03125 1000 627.78125C987.71875 676 968.75 721.40625 943.96875 763.15625C893.53125 740.71875 832.59375 749.875 791.28125 791.28125C750 832.59375 740.84375 893.625 763.28125 943.96875C721.4375000000001 968.75 676 987.71875 627.78125 1000C607.90625 948.5625 558.375 911.84375 499.9999999999999 911.84375C441.53125 911.84375 391.96875 948.5625 372.21875 1000C324 987.71875 278.59375 968.75 236.84375 943.96875C259.2812499999999 893.53125 250.125 832.59375 208.8124999999999 791.28125S106.4687499999999 740.84375 56.1249999999999 763.15625C31.2499999999999 721.40625 12.2812499999999 676 -1e-13 627.78125C51.4374999999999 607.90625 88.1562499999999 558.375 88.1562499999999 500C88.1562499999999 441.5 51.4374999999999 391.96875 -1e-13 372.21875C12.2812499999999 324.0000000000001 31.2499999999999 278.5937500000001 56.0312499999999 236.84375C106.4687499999999 259.28125 167.4062499999999 250.125 208.7187499999999 208.7187500000001C249.9999999999999 167.4062500000001 259.15625 106.3750000000001 236.7187499999999 56.0312500000001C278.5625 31.2500000000001 324 12.2812500000001 372.21875 1e-13C392.0937499999999 51.4375000000001 441.625 88.1562500000001 499.9999999999999 88.1562500000001C558.46875 88.1562500000001 608.0312499999999 51.4375000000001 627.78125 1e-13C675.9999999999999 12.2812500000001 721.4062499999999 31.2500000000001 763.15625 56.0312500000001C740.71875 106.4687500000001 749.875 167.4062500000001 791.1874999999999 208.7187500000001S893.5312499999999 259.1562500000001 943.8749999999998 236.84375C968.7499999999998 278.59375 987.7499999999998 324.0000000000001 1000.0312499999998 372.21875C948.5937499999998 391.9687500000001 911.8749999999998 441.53125 911.8749999999998 500.0000000000001z" />
    <glyph glyph-name="share"
      unicode="&#xEA16;"
      horiz-adv-x="1000" d="M716.4055 111.1092222222222C655.6776111111111 111.1092222222222 606.352 160.9134444444444 606.352 222.2203333333333C606.352 283.5315555555556 655.6776111111111 333.3314444444444 716.4054999999998 333.3314444444444C777.1269444444443 333.3314444444444 826.4568888888888 283.5315555555556 826.4568888888888 222.2203333333333C826.4568888888888 160.9134444444444 777.1269444444443 111.1092222222222 716.4054999999998 111.1092222222222M276.1924833333334 388.8894444444444C215.4667277777778 388.8894444444444 166.1400388888889 438.6903888888889 166.1400388888889 499.9994555555555C166.1400388888889 561.3063388888888 215.4667277777778 611.1105666666666 276.1924833333334 611.1105666666666C336.9149944444445 611.1105666666666 386.2449333333334 561.3063388888888 386.2449333333334 499.9994555555555C386.2449333333334 438.6903888888889 336.9149944444445 388.8894444444444 276.1924833333334 388.8894444444444M716.4055 666.6642111111112C655.6776111111111 666.6642111111112 606.352 716.4684388888888 606.352 777.7753222222223C606.352 839.0865722222222 655.6776111111111 888.8864277777777 716.4054999999998 888.8864277777777C777.1269444444443 888.8864277777777 826.4568888888888 839.0865722222222 826.4568888888888 777.7753222222223C826.4568888888888 716.4684388888888 777.1269444444443 666.6642111111112 716.4054999999998 666.6642111111112M716.4055 944.4444444444443C625.2140555555555 944.4444444444443 551.3241444444444 869.8419 551.3241444444444 777.7747722222223C551.3241444444444 755.2567777777778 555.8424222222222 733.8270388888889 563.8996111111111 714.2831777777778L399.117988888889 610.3173166666667C368.8503444444445 644.6411722222222 325.2237277777778 666.6642111111112 276.1924833333334 666.6642111111112C185.0032055555556 666.6642111111112 111.1111111111111 592.0627611111111 111.1111111111111 500C111.1111111111111 407.9372222222222 185.0032055555556 333.3314444444444 276.1924833333334 333.3314444444444C325.2237277777778 333.3314444444444 368.8503444444445 355.3544444444445 399.117988888889 389.6826666666667L563.8996111111111 285.7124444444445C555.8424444444445 266.1686111111111 551.3241444444444 244.7432222222223 551.3241444444444 222.2197777777778C551.3241444444444 130.1591666666667 625.2140555555555 55.5555555555555 716.4055 55.5555555555555C807.5905 55.5555555555555 881.4815 130.1591666666666 881.4815 222.2197777777778C881.4815 314.2825000000001 807.5905 388.8888888888889 716.4055 388.8888888888889C667.3699444444444 388.8888888888889 623.7443888888889 366.8652777777777 593.4789444444444 332.5370555555556L428.6930055555556 436.5083888888888C436.7501666666667 456.0511722222221 441.2706166666667 477.4787222222221 441.2706166666667 500C441.2706166666667 522.5179944444444 436.7501722222222 543.9488277777778 428.6930055555556 563.4915944444444L593.4789444444444 667.4585500000001C623.7443888888889 633.1346944444444 667.3699444444444 611.1111111111111 716.4055 611.1111111111111C807.5905 611.1111111111111 881.4815 685.7131055555556 881.4815 777.7747722222223C881.4815 869.8419 807.5905 944.4444444444443 716.4055 944.4444444444443M716.3628333333334 949.9782988888888C622.1414444444445 949.9782988888888 545.7899333333334 872.8173722222223 545.7899333333334 777.7777777777778C545.7899333333334 756.2473444444445 550.6381555555556 735.9684611111111 557.8342222222223 717.0138888888889L399.3055555555556 617.0789944444444C368.2335388888889 650.3563722222223 325.0333333333334 672.2005222222222 276.1501722222223 672.2005222222222C181.9309166666667 672.2005222222222 105.5772555555556 595.0354555555555 105.5772555555556 500C105.5772555555556 404.9645555555556 181.9307388888889 327.7995 276.1501722222223 327.7995C325.0333333333334 327.7995 368.2335055555556 349.6395555555555 399.3055555555556 382.921L557.8342222222221 282.986111111111C550.6382333333333 264.0322222222223 545.7899277777777 243.7575555555556 545.7899333333334 222.2222222222222C545.7899333333334 127.1889444444444 622.141388888889 50.0217222222221 716.3628333333334 50.0217222222221C810.5780555555556 50.0217222222221 887.0442777777778 127.1888888888888 887.0442777777778 222.2222222222222C887.0442777777778 317.2576111111112 810.5781666666667 394.4227222222222 716.3628333333334 394.4227222222222C667.4778888888889 394.4227222222222 624.3857222222223 372.5801666666667 593.316 339.3012222222223L434.7873277777778 439.2361111111111C441.98355 458.1893 446.8315944444444 478.4662944444444 446.8316000000001 500C446.8316000000001 521.5307666666665 441.9836 541.8101833333333 434.7873277777778 560.7638888888889L593.316 660.6987833333333C624.3857222222223 627.4239055555555 667.4778888888889 605.5772555555556 716.3628333333334 605.5772555555556C810.5780000000001 605.5772555555556 887.0442777777778 682.7434277777777 887.0442777777778 777.7777777777778C887.0442777777778 872.8174166666666 810.578 949.9782988888888 716.3628333333334 949.9782988888888zM716.3628333333334 938.910588888889C804.5176666666666 938.910588888889 875.9765555555556 866.8723944444445 875.9765555555556 777.7777777777778C875.9765555555556 688.6887944444444 804.5177222222223 616.6449666666667 716.3628333333334 616.6449666666667C668.9907777777779 616.6449666666667 626.9498333333333 637.8937666666667 597.6562222222223 671.11545L594.5095555555556 674.6961722222222L421.7664944444446 565.6466944444445L423.5026055555557 561.4149166666667C431.2933444444444 542.5183833333333 435.7638888888889 521.7744833333333 435.7638888888889 500C435.7638888888889 478.2221277777778 431.2934444444445 457.4818388888889 423.5026055555556 438.5850555555556L421.7664944444445 434.353388888889L594.5095555555556 325.3039444444445L597.6562222222223 328.8845000000001C626.9498333333333 362.1103888888889 668.9907777777778 383.355 716.3628333333332 383.355C804.5174999999999 383.355 875.9765555555555 311.3122222222223 875.9765555555555 222.2221666666668C875.9765555555555 133.1342777777779 804.517611111111 61.0893333333335 716.3628333333332 61.0893333333335C628.2013888888888 61.0893333333335 556.857611111111 133.1342222222224 556.8576666666667 222.2221666666668C556.8576666666667 244.0026111111113 561.2193333333332 264.739388888889 569.0104444444444 283.6371111111112L570.8548888888889 287.8687777777779L398.1118111111112 396.9182222222223L394.9650888888889 393.3376666666667C365.6694833333334 360.1116666666667 323.5178555555556 338.8671666666666 276.1501722222223 338.8671666666666C187.99105 338.8671666666666 116.6449666666667 410.9098888888889 116.6449666666667 500C116.6449666666667 589.0900666666666 187.9908777777778 661.1328111111111 276.1501722222223 661.1328111111111C323.51785 661.1328111111111 365.6694666666667 639.884111111111 394.9652777777778 606.6623277777778L398.112 603.0816055555555L570.8550555555555 712.1310833333332L569.0106111111111 716.362861111111C561.2197222222222 735.2603277777778 556.857611111111 756.0029388888888 556.8576666666667 777.7777777777778C556.8576666666667 866.8724388888888 628.2013333333334 938.910588888889 716.3628333333334 938.910588888889zM716.3628333333334 894.4227444444444C652.5977222222223 894.4227444444444 600.8029444444445 842.0687 600.8029444444445 777.7777777777778C600.8029444444445 713.4910111111111 652.5975000000001 661.1328111111111 716.3628333333334 661.1328111111111C780.1221111111112 661.1328111111111 832.0312222222224 713.4907499999999 832.0312222222224 777.7777777777778C832.0312222222224 842.0689611111111 780.1218333333334 894.4227444444444 716.3628333333334 894.4227444444444zM716.3628333333334 883.3550333333333C774.0467777777778 883.3550333333333 820.8550555555556 836.1090944444444 820.8550555555556 777.7777777777778C820.8550555555556 719.4510388888889 774.0465 672.2005222222222 716.3628333333334 672.2005222222222C658.6724444444445 672.2005222222222 611.8706666666667 719.4507777777778 611.8706666666667 777.7777777777778C611.8706666666667 836.1093555555556 658.6721666666667 883.3550333333333 716.3628333333334 883.3550333333333zM276.1501722222223 616.6449666666667C212.3868277777778 616.6449666666667 160.5902777777778 564.2868333333333 160.5902777777778 500C160.5902777777778 435.7111111111111 212.3870277777778 383.3550555555555 276.1501722222223 383.3550555555555C339.9102388888889 383.3550555555555 391.8185777777778 435.7108888888889 391.8185777777778 500C391.8185777777778 564.2870277777778 339.9104388888889 616.6449666666667 276.1501722222223 616.6449666666667zM276.1501722222223 605.5772555555556C333.8349277777778 605.5772555555556 380.6423611111112 558.3267388888889 380.6423611111112 500C380.6423611111112 441.671 333.8351277777778 394.4227222222222 276.1501722222223 394.4227222222222C218.4618111111111 394.4227222222222 171.6579833333333 441.6707777777779 171.6579888888889 500C171.6579888888889 558.3269333333333 218.4620111111111 605.5772555555556 276.1501722222223 605.5772555555556zM716.3628333333334 338.8671666666667C652.5977222222223 338.8671666666667 600.8029444444445 286.5131111111112 600.8029444444445 222.2222222222222C600.8029444444445 157.9354444444445 652.5975000000001 105.5772777777777 716.3628333333334 105.5772777777777C780.1221111111112 105.5772777777777 832.0312222222224 157.9351666666665 832.0312222222224 222.2222222222222C832.0312222222224 286.5133888888888 780.1218333333334 338.8671666666667 716.3628333333334 338.8671666666667zM716.3628333333334 327.7995000000001C774.0467222222222 327.7995000000001 820.8550555555556 280.5535000000001 820.8550555555556 222.2222222222222C820.8550555555556 163.8955 774.0465 116.6449444444445 716.3628333333334 116.6449444444445C658.6724444444445 116.6449444444445 611.8706666666667 163.8952222222223 611.8706666666667 222.2222222222222C611.8706666666667 280.5537777777778 658.6721666666667 327.7995 716.3628333333334 327.7995z" />
    <glyph glyph-name="stop"
      unicode="&#xEA17;"
      horiz-adv-x="1055.5555555555557" d="M305.5555555555556 937.5H305.5555555555556A62.5 62.5 0 0 0 368.0555555555556 875V125A62.5 62.5 0 0 0 305.5555555555556 62.5H305.5555555555556A62.5 62.5 0 0 0 243.0555555555556 125V875A62.5 62.5 0 0 0 305.5555555555556 937.5zM805.5555555555555 937.5H805.5555555555555A62.5 62.5 0 0 0 868.0555555555555 875V125A62.5 62.5 0 0 0 805.5555555555555 62.5H805.5555555555555A62.5 62.5 0 0 0 743.0555555555555 125V875A62.5 62.5 0 0 0 805.5555555555555 937.5z" />
    <glyph glyph-name="user"
      unicode="&#xEA18;"
      horiz-adv-x="1000" d="M339.76995625 426.6191375C145.1091 426.6191375 0 300.3439625 0 116.0425250000001L0 95.565975C0 0 155.7255741666667 0 353.9248233333334 0L562.7418416666667 0C750.3233208333334 0 916.6666666666666 0 916.6666666666666 95.565975L916.6666666666666 116.0425250000001C916.6666666666666 300.3439625 771.5575666666666 426.6191375 576.8980083333333 426.6191375L339.76995625 426.6191375zM445.943775 474.4015000000001C598.1361416666666 474.4015000000001 725.5455 593.8574104166667 725.5455 737.2020008333334C725.5455 883.9587245833334 601.6758291666666 1000 445.943775 1000C290.2181995833333 1000 169.8817379166667 883.9587245833334 169.8817379166667 737.2020008333334C169.8817379166667 590.4452770833334 293.75788875 474.4015000000001 445.943775 474.4015000000001L445.943775 474.4015000000001z" />
    <glyph glyph-name="wallet"
      unicode="&#xEA19;"
      horiz-adv-x="1000" d="M700.4489764705881 437.6809282352941C700.4489764705881 451.5813388235294 705.2219470588235 463.2861005882354 714.7593470588234 472.7815994117648C724.3004117647059 482.2721476470589 736.0448529411764 487.0384623529412 750.0024411764706 487.0384623529412C763.9588058823529 487.0384623529412 775.7032529411764 482.2721476470589 785.2357705882353 472.7815994117648C794.7817117647058 463.2861005882354 799.5510235294117 451.5813388235294 799.5510235294117 437.6809282352941C799.5510235294117 423.7829935294118 794.7817117647058 411.8888658823529 785.2357705882353 402.0257764705882C775.7032529411764 392.1478352941178 763.9588058823529 387.207005882353 750.0024411764706 387.207005882353C736.0448529411764 387.207005882353 724.3004117647059 392.1478352941178 714.7593470588234 402.0257764705882C705.2219470588235 411.8925788235295 700.4489764705881 423.7829935294118 700.4489764705881 437.6809282352941L700.4489764705881 437.6809282352941zM850.2287588235295 835.8569517647059L350.2299817647059 835.8569517647059C389.8883782352941 856.3319305882353 427.3397329411765 876.0816282352941 462.5767217647059 895.1060435294117C493.42404 911.200864117647 523.8941594117647 927.2956852941176 553.9919629411764 943.3669907647057C584.086104117647 959.442009 607.5749882352941 971.8770034705882 624.4744823529412 980.680638C650.1801764705882 994.5847613941175 673.1209647058823 1000.9761530058825 693.3017235294118 999.8795664494118C713.4861470588235 998.776791482353 730.5467823529411 995.305092517647 744.5007058823529 989.4607565294118C760.6641117647058 981.400969117647 774.6217 970.803932882353 786.3710294117647 957.6486072941178L850.2287588235295 835.8569517647059zM1000 138.2496764705883C1000 124.3356529411765 997.6110705882352 111.373405882353 992.8515294117645 99.3109529411765C988.0846588235294 87.2769705882354 981.2926352941176 76.6700294117648 972.4815529411763 67.5074647058824C963.6704764705883 58.360994117647 953.3884470588234 51.2294705882354 941.6391176470586 46.1487823529412C929.8959 41.0433411764707 917.0442705882352 38.480105882353 903.0866823529412 38.4615411764706L103.5356617647059 38.4615411764706C89.5853982352941 38.4615411764706 76.3700017647059 41.0136411764705 63.8931341176471 46.1487823529412C51.4174874117647 51.2678352941177 40.4079121764706 58.3993647058825 30.8387736470588 67.5074647058824C21.2671937058824 76.6403235294118 13.7488464117647 87.2485 8.2507727058824 99.3109529411765C2.7465954411765 111.3919705882354 0 124.3740176470589 0 138.2496764705883L0 685.5849882352941C0 713.3944729411764 9.7290514117647 736.9834605882353 29.1725057058824 756.355664117647C48.6281671176471 775.7328194117647 72.3184682352941 785.416445882353 100.2263194117647 785.416445882353L899.7773411764705 785.416445882353C927.6864117647058 785.416445882353 951.3718352941175 775.7328194117647 970.8165058823528 756.355664117647C990.273388235294 736.9834605882353 1000 713.3944729411764 1000 685.5849882352941L1000 536.4157994117647L750.0024411764706 536.4157994117647C722.0884882352941 536.4157994117647 698.4079529411765 526.9103988235295 678.9583941176471 507.8921723529411C659.4978470588235 488.862805882353 649.7748999999999 465.4520447058824 649.7748999999999 437.6809282352941C650.5061058823529 418.6515623529412 654.5442117647058 401.8326941176471 661.8977647058823 387.207005882353C667.7754764705882 374.7769588235294 677.4984235294118 363.4496941176472 691.0788117647058 353.2004470588236C704.6543176470589 342.9450117647059 724.3004117647059 337.8259529411765 750.0024411764706 337.8259529411765L1000 337.8259529411765L1000 138.1877941176471L1000 138.2496764705883z" />
    <glyph glyph-name="zygl"
      unicode="&#xEA1A;"
      horiz-adv-x="1000" d="M872.875 755.53125C868 776.53125 843.7812499999999 793.65625 819.21875 793.65625H516.5C488.0937499999999 795.4375 461.1562499999999 807.3125 440.40625 827.1875L413.625 854.90625C392.84375 875.03125 365.78125 887.0625 337.15625 888.875H192.625C166.8125 887.9375 145.625 867.71875 142.9687499999999 841.53125L129.9374999999999 717.46875H881.8437499999999L872.875 755.21875V755.53125zM902.5 666.71875H96.8749999999999C56.0312499999999 666.71875 53.9374999999999 645.34375 56.1562499999999 619.21875L93.1562499999999 158.5625C95.3749999999999 132.5000000000001 101.1562499999999 111.125 142 111.125H857.9999999999999C899.6562499999998 111.125 904.6249999999998 132.5000000000001 906.8437499999998 158.5625L943.8437499999998 619.21875C946.0624999999998 645.34375 943.8437499999998 666.65625 903.2187499999998 666.65625L902.4687499999998 666.71875z" />
  </font>
</defs>
</svg>
