<?xml version="1.0" encoding="UTF-8"?>
<svg width="14px" height="14px" viewBox="0 0 14 14" version="1.1" xmlns="http://www.w3.org/2000/svg" xmlns:xlink="http://www.w3.org/1999/xlink">
    <title>展开全部@2x</title>
    <defs>
        <polygon id="path-1" points="1.6287703e-05 0.00329744548 7.01852678 0.00329744548 7.01852678 7.01997883 1.6287703e-05 7.01997883"></polygon>
        <polygon id="path-3" points="1.61490683e-05 0.00344173764 12.9963511 0.00344173764 12.9963511 12.7399742 1.61490683e-05 12.7399742"></polygon>
        <polygon id="path-5" points="0.0108698318 0.00529454545 7.01639507 0.00529454545 7.01639507 7.26364316 0.0108698318 7.26364316"></polygon>
    </defs>
    <g id="页面-1" stroke="none" stroke-width="1" fill="none" fill-rule="evenodd">
        <g id="产品详情" transform="translate(-987.000000, -1416.000000)">
            <g id="展开全部" transform="translate(987.000000, 1416.000000)">
                <g id="编组" transform="translate(0.000000, 5.980000)">
                    <mask id="mask-2" fill="white">
                        <use xlink:href="#path-1"></use>
                    </mask>
                    <g id="Clip-2"></g>
                    <path d="M6.48316219,7.01997883 C6.34307166,7.01997883 6.2096428,6.96662031 6.10957115,6.86658124 L0.14527491,0.895607039 C-0.0548846729,0.682172979 -0.0482067146,0.348568246 0.165308784,0.148408664 C0.372097462,-0.0450729606 0.692378854,-0.0450729606 0.892473285,0.148408664 L6.86344748,6.11931771 C7.07021987,6.32615525 7.07021987,6.65975999 6.86344748,6.86658124 C6.76335955,6.95997493 6.62326902,7.01997883 6.48316219,7.01997883" id="Fill-1" fill="#43A8FF" mask="url(#mask-2)"></path>
                </g>
                <g id="编组" transform="translate(0.000000, 0.260000)">
                    <mask id="mask-4" fill="white">
                        <use xlink:href="#path-3"></use>
                    </mask>
                    <g id="Clip-4"></g>
                    <path d="M6.42798,6.95955036 C6.28908186,6.95955036 6.1567887,6.90662043 6.05756882,6.80741313 L0.144038385,0.887995762 C-0.0544175155,0.676405191 -0.0477963975,0.345681896 0.163901739,0.147251148 C0.368930311,-0.0444947326 0.68648559,-0.0444947326 0.884876894,0.147251148 L6.80502845,6.06666851 C7.01004087,6.27171954 7.01004087,6.6023621 6.80502845,6.80741313 C6.70579242,6.90662043 6.56689429,6.95955036 6.42798,6.95955036 M6.42798,12.7399742 C6.13692534,12.7399742 5.9054123,12.5084905 5.9054123,12.2241091 C5.9054123,12.0852124 5.9583328,11.9463319 6.05756882,11.8470923 L12.1165539,5.7888913 C12.328252,5.59708083 12.6590011,5.61030524 12.8573924,5.82194425 C13.0426707,6.02035885 13.0426707,6.33120517 12.8573924,6.52963591 L6.79839118,12.5879015 C6.70579242,12.6805047 6.56689429,12.7399742 6.42798,12.7399742" id="Fill-3" fill="#43A8FF" mask="url(#mask-4)"></path>
                </g>
                <g id="编组" transform="translate(5.980000, 0.000000)">
                    <mask id="mask-6" fill="white">
                        <use xlink:href="#path-5"></use>
                    </mask>
                    <g id="Clip-6"></g>
                    <path d="M0.527142968,7.26364316 C0.239594195,7.26364316 0.0108698318,7.02644753 0.0108698318,6.73503244 C0.0108698318,6.59269189 0.0631528773,6.45038444 0.161193559,6.34872916 L6.14719542,0.140957345 C6.35634356,-0.0555861091 6.6831086,-0.0420188364 6.8791102,0.174875527 C7.0621567,0.378136436 7.0621567,0.696702618 6.8791102,0.899980073 L0.893092377,7.10775189 C0.801609014,7.20940716 0.664383968,7.26364316 0.527142968,7.26364316" id="Fill-5" fill="#43A8FF" mask="url(#mask-6)"></path>
                </g>
            </g>
        </g>
    </g>
</svg>